<svg xmlns="http://www.w3.org/2000/svg" width="14" height="14" viewBox="0 0 14 14">
  <defs>
    <style>
      .cls-1 {
        fill: #037fbf;
      }
    </style>
  </defs>
  <path id="earth" class="cls-1" d="M13.13,12.773A1.4,1.4,0,0,0,11.8,11.8h-.7V9.7a.7.7,0,0,0-.7-.7H6.2V7.6H7.6a.7.7,0,0,0,.7-.7V5.5H9.7a1.4,1.4,0,0,0,1.4-1.4V3.813a5.588,5.588,0,0,1,2.03,8.96M8.3,14.551a5.573,5.573,0,0,1-4.753-6.8L6.9,11.1v.7a1.4,1.4,0,0,0,1.4,1.4M9,2a7,7,0,1,0,7,7A7,7,0,0,0,9,2Z" transform="translate(-2 -2)"/>
</svg>
