<?xml version="1.0" encoding="UTF-8"?>
<svg width="48px" height="42px" viewBox="0 0 48 42" version="1.1" xmlns="http://www.w3.org/2000/svg"
     xmlns:xlink="http://www.w3.org/1999/xlink">
  <!-- Generator: Sketch 52 (66869) - http://www.bohemiancoding.com/sketch -->
  <title>Group 13</title>
  <desc>Created with Sketch.</desc>
  <g id="Page-1" stroke="none" stroke-width="1" fill="none" fill-rule="evenodd" opacity="0.574051339">
    <g id="Desktop-HD" transform="translate(-203.000000, -647.000000)" fill="#325fff" fill-rule="nonzero">
      <g id="Group-13" transform="translate(203.000000, 647.000000)">
        <path
          d="M47.7255098,10.9463499 L37.1188409,0.27612958 C36.7528383,-0.0920431934 36.1593966,-0.0920431934 35.7929253,0.27612958 C34.8240122,1.25078778 30.2334172,5.86860234 29.2963793,6.81129062 L24.7621284,8.69006572 L18.5760846,7.80122648 L12.2073208,1.39479388 C11.9075062,1.09301292 11.5544412,1.12055043 11.5443161,1.11847569 C11.2956894,1.11847569 11.0572814,1.21787479 10.8814052,1.39469958 L0.274455073,12.0644484 C-0.0913600173,12.4325269 -0.0916412693,13.0299589 0.274548823,13.3982259 L6.66346906,19.8240857 L7.39359923,23.4956283 L5.87080719,25.0274496 C4.58829811,26.3161486 4.58651685,28.4049444 5.87005719,29.6948694 C6.49021783,30.3193674 7.32281747,30.6711308 8.22610512,30.6616059 C8.21729256,31.5184752 8.53641982,32.3779851 9.18479941,33.0302092 C9.82474144,33.6733799 10.6649349,33.9948709 11.5052221,33.9948709 C11.5172222,33.9948709 11.5291285,33.9941164 11.5411286,33.9940221 C11.531941,34.8512687 11.8509745,35.711533 12.4995416,36.3646059 C13.1191398,36.9878779 13.9430206,37.331248 14.8194956,37.331248 C14.8314019,37.331248 14.8432145,37.3304936 14.8550271,37.3303993 C14.8463082,38.1869857 15.1654355,39.0464956 15.8139088,39.6987197 C17.0933241,40.9845895 19.1750576,40.9852497 20.4544729,39.6984368 L20.786069,39.3648745 L22.4426433,41.0320257 C23.7250586,42.3219507 25.8011671,42.3233653 27.0835824,41.0320257 C27.7322432,40.3795187 28.0513705,39.5194429 28.0420892,38.6622907 C28.0539018,38.662385 28.0657143,38.6631395 28.0775269,38.6631395 C28.9179079,38.6631395 29.7585701,38.3414598 30.3987934,37.6980062 C31.0464229,37.0458764 31.3652689,36.1866494 31.3564564,35.330063 C32.2584315,35.3399652 33.0919687,34.988579 33.7125981,34.3637038 C34.3612589,33.7111968 34.6803862,32.8511211 34.6711048,31.9939688 C34.6829174,31.9940631 34.69473,31.9948176 34.7065426,31.9948176 C35.5469236,31.9948176 36.3875858,31.6731379 37.027809,31.0296843 C38.3066618,29.742117 38.3064743,27.64804 37.0275278,26.3616044 L36.5728371,25.9042176 L41.1639946,18.88036 L47.725416,12.2800332 C48.0915124,11.9117661 48.0915124,11.314617 47.7255098,10.9463499 Z M2.66666667,12.6983419 L11.7417396,3.57446809 L13.038244,4.87794447 L8.50024923,9.44034221 C8.14227356,9.80024289 8.14227356,10.3838258 8.50024923,10.7438186 C8.85831657,11.1037193 9.43859468,11.1037193 9.7967537,10.7438186 L14.3347485,6.18142085 L16.8888889,8.74929605 L7.81372431,17.8723404 L2.66666667,12.6983419 Z M7.11281111,25.9148936 C7.11261111,25.9150936 7.11191111,25.9157936 7.11111111,25.9165936 C7.11191111,25.9157936 7.11251111,25.9150936 7.11281111,25.9148936 Z M9.33276378,28.2121607 C8.82701995,28.7210592 8.00441619,28.7263802 7.49277244,28.2114629 C6.98399189,27.7003837 6.9837316,26.8734455 7.49294597,26.3619301 C7.49450771,26.36036 7.49580916,26.3590515 7.49719738,26.3576559 C7.49901941,26.355824 7.50075468,26.3540794 7.50231642,26.3525093 C7.50327082,26.3515498 7.50413845,26.3506775 7.50500608,26.3498052 C7.569211,26.2852552 7.9147896,25.9379062 9.33371818,24.5113506 C9.84189139,23.9998353 10.6650157,23.9995736 11.1742301,24.5116995 C11.683618,25.0237383 11.6817092,25.8515488 11.1742301,26.3616684 C11.1740566,26.3618429 11.1739698,26.3619301 11.1737963,26.3621046 L9.33276378,28.2121607 Z M10.1583591,31.7875993 C9.65096074,31.2775206 9.65096074,30.4469632 10.1580987,29.9366228 C10.1582723,29.9364483 10.1585327,29.9361866 10.1587063,29.9360121 C10.1588799,29.9358376 10.1589667,29.9357503 10.1591403,29.9355758 L11.9996962,28.0860827 C11.9998698,28.0859082 11.9999566,28.0858209 12.0001302,28.0856464 C12.000217,28.0855592 12.0003038,28.0854719 12.0003906,28.0852974 C12.5087437,27.5744335 13.3321594,27.574259 13.8408597,28.0856464 C14.3493864,28.5968593 14.3492997,29.4257589 13.8408597,29.9368846 L11.9999566,31.787512 C11.4925582,32.2978524 10.6660179,32.2976779 10.1583591,31.7875993 Z M15.5545518,34.4678056 C15.0464604,34.9785112 14.2226127,34.9790346 13.7141741,34.4680673 C13.2065166,33.9574489 13.206343,33.1270617 13.7139137,32.617054 L15.5551594,30.7666512 C16.0635112,30.2551606 16.8869249,30.2548989 17.3963182,30.7670001 C17.9038889,31.2770079 17.905972,32.1046911 17.3963182,32.6168795 L15.5545518,34.4678056 Z M20.9513782,36.1918175 L19.1107583,38.0427921 C18.6033512,38.5532282 17.7770249,38.5529664 17.2694442,38.0428794 C16.7620371,37.5326178 16.7620371,36.7023409 17.2694442,36.1920793 L19.1109319,34.340232 C19.6165166,33.8318031 20.4421487,33.8281378 20.9507707,34.3395339 C21.4554876,34.8482246 21.4659881,35.6733526 20.9513782,36.1918175 Z M36.0337948,29.8090322 C35.4851374,30.3597207 34.5935106,30.3600032 34.0456029,29.8095973 C34.0455092,29.8095031 34.0454154,29.809409 34.0453217,29.8093148 L33.0510852,28.8100323 C32.6850638,28.4422474 32.0917079,28.4422474 31.7257801,28.8100323 C31.3598524,29.1778172 31.3598524,29.7741845 31.7257801,30.1419694 L32.7200166,31.1411577 C33.2679244,31.6918462 33.2679244,32.587904 32.7197355,33.138875 C32.1707033,33.6911646 31.2822626,33.6913529 30.7330429,33.1389692 C30.7328555,33.1387808 30.7325744,33.1384983 30.732387,33.1383099 L29.7382442,32.1399693 C29.3719416,31.7722785 28.7787731,31.7725611 28.4129391,32.1405344 C28.0471987,32.5085076 28.0474798,33.1047807 28.4135013,33.4724715 L29.4071756,34.470247 C29.9549896,35.0214064 29.9549896,35.9181235 29.4078315,36.4686236 C28.8592679,37.0194062 27.9673599,37.0196888 27.4192648,36.4689061 L26.4250283,35.4696237 C26.0590068,35.1018387 25.465651,35.1018387 25.0997232,35.4696237 C24.7337954,35.8374086 24.7337954,36.4337758 25.0997232,36.8015608 L26.0939597,37.8007491 C26.6418674,38.3514375 26.6418674,39.2474953 26.0936786,39.7984664 C25.544459,40.3509443 24.6555497,40.3508501 24.1057678,39.798278 L22.449769,38.1332153 L22.7813061,37.7999956 C24.0596637,36.5126071 24.0665981,34.4336098 22.7806501,33.1384041 C22.1325691,32.4871281 21.2787064,32.1666231 20.4275612,32.1753821 C20.4365571,31.2545541 20.0787819,30.4229175 19.4679965,29.8090322 C18.847278,29.1851635 18.0153429,28.8348025 17.1140642,28.843844 C17.1231538,27.9407225 16.7763424,27.1036233 16.1545932,26.4787185 C15.5341559,25.8553207 14.7023144,25.505148 13.8015043,25.5142838 C13.8114373,24.6018381 13.4563796,23.7669051 12.8419395,23.1494409 C11.9115178,22.2142971 10.5620362,21.957554 9.40324933,22.3798709 L8.88888889,19.7952989 L18.8049222,9.82978723 L21.6859592,10.2434393 L20.7677194,10.6237506 C20.6533963,10.6711247 20.5495684,10.740726 20.4620456,10.8285988 L14.1667761,17.1558181 C12.8881373,18.4409462 12.8881373,20.5319989 14.1667761,21.817127 C15.4494443,23.1061167 17.5223478,23.1066817 18.8056719,21.8169387 L21.1233394,19.4864725 C21.4894546,19.1190644 22.0844971,19.1189702 22.4494878,19.4860958 C24.2170923,21.2624829 26.8052933,21.5746998 28.8497097,20.5907692 L35.0371219,26.8095837 C35.0388086,26.811279 35.0404953,26.8130685 35.0422758,26.8147638 L36.0335137,27.8110324 C36.5814214,28.3617208 36.5813277,29.2582496 36.0337948,29.8090322 Z M35.9232162,25.0212766 L30.687231,19.7513431 L31.3607245,19.0735788 C31.7327703,18.6991208 31.7327703,18.091933 31.3607245,17.7174749 C30.9886786,17.3430169 30.3855928,17.3430169 30.0132612,17.7174749 C29.4209414,18.294265 29.2293449,18.5608446 28.757547,18.8768085 C27.2992798,19.858742 25.2759413,19.7296715 23.9502005,18.395431 C22.8365402,17.2743583 21.0230907,17.2740706 19.9073343,18.3955269 L17.550536,20.7686607 C16.9910858,21.3316423 16.0885531,21.3320259 15.5289124,20.7686607 C14.971844,20.2079805 14.971844,19.2956645 15.5289124,18.7349843 L21.7947166,12.4284589 L30.2185771,8.93617021 L40,18.7810125 L35.9232162,25.0212766 Z M40.1617741,16.9787234 L31.1111111,7.87994368 L33.6971193,5.28012165 L38.2224965,9.82951151 C38.5795971,10.1884151 39.1583085,10.1884151 39.5155006,9.82951151 C39.8725098,9.47060795 39.8725098,8.88864191 39.5155006,8.52964644 L34.9901234,3.98025658 L36.2826704,2.68085106 L45.3333333,11.7796308 L40.1617741,16.9787234 Z"
          id="Shape"></path>
      </g>
    </g>
  </g>
</svg>
