<?xml version="1.0" encoding="UTF-8"?>
<svg width="46px" height="51px" viewBox="0 0 46 51" version="1.1" xmlns="http://www.w3.org/2000/svg" xmlns:xlink="http://www.w3.org/1999/xlink">
    <!-- Generator: Sketch 52 (66869) - http://www.bohemiancoding.com/sketch -->
    <title>Group 4</title>
    <desc>Created with Sketch.</desc>
    <g id="Page-1" stroke="none" stroke-width="1" fill="none" fill-rule="evenodd">
        <g id="Desktop-HD" transform="translate(-863.000000, -642.000000)" fill="#8AA4FF" fill-rule="nonzero">
            <g id="Group-4" transform="translate(863.000000, 641.000000)">
                <path d="M43.259,33.4 C42.94776,33.220875 42.6137362,33.0846417 42.266,32.995 L42.266,19.834 C43.8895845,19.4144119 45.0745897,18.0201557 45.2269759,16.3501679 C45.379362,14.68018 44.466278,13.0944734 42.9454503,12.3879582 C41.4246225,11.681443 39.6239081,12.0064283 38.446,13.2 L26.446,6.045 C26.9024351,4.42608425 26.2893948,2.695219 24.915753,1.72448246 C23.5421112,0.753745913 21.7058888,0.753745913 20.332247,1.72448246 C18.9586052,2.695219 18.3455649,4.42608425 18.802,6.045 L6.802,13.2 C5.62376094,12.0063489 3.82262205,11.6816708 2.30174822,12.3887727 C0.780874391,13.0958745 -0.131748705,14.6822655 0.0215055695,16.3524641 C0.174759843,18.0226626 1.36084127,19.4164804 2.985,19.835 L2.985,32.994 C1.36084127,33.4125196 0.174759843,34.8063374 0.0215055695,36.4765359 C-0.131748705,38.1467345 0.780874391,39.7331255 2.30174822,40.4402273 C3.82262205,41.1473292 5.62376094,40.8226511 6.802,39.629 L18.802,46.784 C18.3455649,48.4029158 18.9586052,50.133781 20.332247,51.1045175 C21.7058888,52.0752541 23.5421112,52.0752541 24.915753,51.1045175 C26.2893948,50.133781 26.9024351,48.4029158 26.446,46.784 L38.446,39.629 C39.5326674,40.7276986 41.1580279,41.0962086 42.6122859,40.5736014 C44.0665439,40.0509941 45.0855477,38.7321962 45.2242977,37.1931273 C45.3630478,35.6540584 44.5963415,34.1742753 43.259,33.4 Z M40.279,14.271 C41.2286721,13.7239603 42.4419867,14.0500832 42.9894241,14.999526 C43.5368615,15.9489689 43.2112469,17.16242 42.2620335,17.7102551 C41.31282,18.2580902 40.0992327,17.9329839 39.551,16.984 C39.287164,16.527835 39.2156447,15.9854477 39.3522187,15.4764846 C39.4887926,14.9675215 39.8222383,14.5338015 40.279,14.271 Z M25.444,7.761 L37.45,14.917 C37.2587109,15.6033488 37.2542229,16.3283355 37.437,17.017 L31.559,20.144 C29.7098397,17.5226416 26.8060882,15.8418493 23.612,15.544 L23.612,8.814 C24.306164,8.63392597 24.9390016,8.27018252 25.444,7.761 Z M22.621,29.392 C25.1680832,29.3957316 27.3002463,31.3240914 27.559,33.858 C24.5663788,35.8447081 20.6746212,35.8447081 17.682,33.858 C17.9407932,31.3237113 20.073534,29.3952196 22.621,29.392 Z M19.643,24.428 C19.643,22.783296 20.976296,21.45 22.621,21.45 C24.265704,21.45 25.599,22.783296 25.599,24.428 C25.599,26.072704 24.265704,27.406 22.621,27.406 C20.9768191,27.4043474 19.6442046,26.0721803 19.642,24.428 L19.643,24.428 Z M25.843,28.2 C27.4256416,26.8507302 27.9994081,24.6579309 27.2804458,22.7064247 C26.5614834,20.7549185 24.7022316,19.4584776 22.6225,19.4584776 C20.5427684,19.4584776 18.6835166,20.7549185 17.9645542,22.7064247 C17.2455919,24.6579309 17.8193584,26.8507302 19.402,28.2 C17.7426068,29.0720283 16.5036447,30.5747834 15.964,32.37 C13.6838693,29.8274646 13.0525121,26.2075825 14.3372916,23.0432779 C15.6220712,19.8789732 18.598223,17.7238216 22.0054258,17.4904727 C25.4126285,17.2571238 28.654813,18.9864005 30.359,21.946 C32.2869772,25.2898324 31.8514993,29.493404 29.279,32.371 C28.7395907,30.5754096 27.5005998,29.0722592 25.841,28.2 L25.843,28.2 Z M22.621,2.985 C23.7172852,2.985 24.606,3.87371477 24.606,4.97 C24.606,6.06628523 23.7172852,6.955 22.621,6.955 C21.5247148,6.955 20.636,6.06628523 20.636,4.97 C20.6376521,3.87439981 21.5253998,2.98665208 22.621,2.985 Z M19.798,7.76 C20.3024432,8.26887387 20.9345522,8.63259564 21.628,8.813 L21.628,15.54 C18.4339118,15.8378493 15.5301603,17.5186416 13.681,20.14 L7.805,17.017 C7.98777709,16.3283355 7.98328908,15.6033488 7.792,14.917 L19.798,7.76 Z M2.251,15 C2.65239338,14.3040874 3.43351625,13.9185456 4.23004591,14.0231947 C5.02657557,14.1278438 5.68160303,14.7020689 5.88961761,15.4780463 C6.09763219,16.2540236 5.81765694,17.0788929 5.18027482,17.5679276 C4.54289271,18.0569624 3.67366213,18.1138273 2.978,17.712 C2.52167969,17.449034 2.18864142,17.0154222 2.05227335,16.5067149 C1.91590529,15.9980076 1.98739894,15.4559537 2.251,15 Z M4.959,38.557 C4.00950923,39.1048059 2.7957136,38.7792599 2.24778634,37.8298392 C1.69985909,36.8804185 2.02524982,35.6665812 2.97460047,35.1185326 C3.92395112,34.5704839 5.13782996,34.8957194 5.686,35.845 C6.23259383,36.7948568 5.90741415,38.0079067 4.959,38.557 Z M4.959,32.995 L4.959,19.832 C5.66677136,19.6476035 6.31043738,19.2726792 6.82,18.748 L12.687,21.866 C11.3651675,24.7553299 11.3651675,28.0766701 12.687,30.966 L6.82,34.084 C6.31104389,33.5574952 5.66732112,33.1808085 4.959,32.995 Z M19.797,45.067 L7.792,37.911 C7.98328908,37.2246512 7.98777709,36.4996645 7.805,35.811 L13.682,32.688 C15.5244031,35.3167389 18.4318775,36.9996862 21.629,37.288 L21.629,44.014 C20.934836,44.194074 20.3019984,44.5578175 19.797,45.067 Z M22.62,49.842 C21.5237148,49.842 20.635,48.9532852 20.635,47.857 C20.635,46.7607148 21.5237148,45.872 22.62,45.872 C23.7162852,45.872 24.605,46.7607148 24.605,47.857 C24.6033495,48.9522106 23.7162096,49.8397976 22.621,49.842 L22.62,49.842 Z M25.443,45.067 C24.9385568,44.5581261 24.3064478,44.1944044 23.613,44.014 L23.613,37.288 C26.8101225,36.9996862 29.7175969,35.3167389 31.56,32.688 L37.437,35.811 C37.2542229,36.4996645 37.2587109,37.2246512 37.45,37.911 L25.443,45.067 Z M38.418,34.079 L32.55,30.961 C33.8718325,28.0716701 33.8718325,24.7503299 32.55,21.861 L38.417,18.743 C38.9265626,19.2676792 39.5702286,19.6426035 40.278,19.827 L40.278,32.994 C39.5704775,33.1788469 38.9271654,33.5541123 38.418,34.079 Z M42.991,37.83 C42.5896066,38.5259126 41.8084838,38.9114544 41.0119541,38.8068053 C40.2154244,38.7021562 39.560397,38.1279311 39.3523824,37.3519537 C39.1443678,36.5759764 39.4243431,35.7511071 40.0617252,35.2620724 C40.6991073,34.7730376 41.5683379,34.7161727 42.264,35.118 C43.2119423,35.6674548 43.5370044,36.8800661 42.991,37.83 Z" id="Path_21"></path>
            </g>
        </g>
    </g>
</svg>
