<?xml version="1.0" encoding="UTF-8"?>
<svg width="35px" height="47px" viewBox="0 0 35 47" version="1.1" xmlns="http://www.w3.org/2000/svg" xmlns:xlink="http://www.w3.org/1999/xlink">
    <!-- Generator: Sketch 52 (66869) - http://www.bohemiancoding.com/sketch -->
    <title>Group 14</title>
    <desc>Created with Sketch.</desc>
    <g id="Page-1" stroke="none" stroke-width="1" fill="none" fill-rule="evenodd" opacity="0.574051339">
        <g id="Desktop-HD" transform="translate(-648.000000, -774.000000)" fill="#325FFF" fill-rule="nonzero">
            <g id="Group-14" transform="translate(648.000000, 774.000000)">
                <path d="M34.438,9.916 L24.789,0.293 C24.6144242,0.111186016 24.3749897,0.00584923673 24.123,0 L3.865,0 C1.73110509,0.00165439659 0.00165439659,1.73110509 0,3.865 L0,42.435 C0.00165439659,44.5688949 1.73110509,46.2983456 3.865,46.3 L30.865,46.3 C32.9988949,46.2983456 34.7283456,44.5688949 34.73,42.435 L34.73,10.609 C34.7300391,10.3480875 34.6247505,10.0982075 34.438,9.916 Z M25.082,3.306 L31.426,9.6500095 L27,9.65 C26.4905691,9.65160514 26.0015837,9.44973901 25.6416416,9.08923362 C25.2816995,8.72872822 25.0805983,8.23942781 25.083,7.73 L25.082,3.306 Z M32.782,42.436 C32.7841378,42.9456028 32.5826447,43.4349511 32.2222979,43.7952979 C31.8619511,44.1556447 31.3726028,44.3571378 30.863,44.355 L3.863,44.355 C3.35339718,44.3571378 2.86404891,44.1556447 2.50370213,43.7952979 C2.14335534,43.4349511 1.94186215,42.9456028 1.944,42.436 L1.944,3.865 C1.94185817,3.35504887 2.14362522,2.8653943 2.50440606,2.50498908 C2.8651869,2.14458386 3.35505138,1.94332697 3.865,1.946 L23.165,1.946 L23.165,7.73 C23.1666544,9.86389491 24.8961051,11.5933456 27.03,11.595 L32.788,11.595 L32.782,42.436 Z" id="Path_24"></path>
                <path d="M27.961,27.002 L6.744,27.002 C6.22613693,27.0187205 5.81497983,27.4433671 5.81497983,27.9615 C5.81497983,28.4796329 6.22613693,28.9042795 6.744,28.921 L27.961,28.921 C28.3111832,28.9323065 28.6397149,28.75194 28.818152,28.4504167 C28.9965891,28.1488934 28.9965891,27.7741066 28.818152,27.4725833 C28.6397149,27.17106 28.3111832,26.9906935 27.961,27.002 Z" id="Path_25"></path>
                <path d="M27.961,21.218 L6.744,21.218 C6.39381682,21.2066935 6.06528511,21.38706 5.886848,21.6885833 C5.70841089,21.9901066 5.70841089,22.3648934 5.886848,22.6664167 C6.06528511,22.96794 6.39381682,23.1483065 6.744,23.137 L27.961,23.137 C28.3111832,23.1483065 28.6397149,22.96794 28.818152,22.6664167 C28.9965891,22.3648934 28.9965891,21.9901066 28.818152,21.6885833 C28.6397149,21.38706 28.3111832,21.2066935 27.961,21.218 Z" id="Path_26"></path>
                <path d="M27.961,32.786 L6.744,32.786 C6.39381682,32.7746935 6.06528511,32.95506 5.886848,33.2565833 C5.70841089,33.5581066 5.70841089,33.9328934 5.886848,34.2344167 C6.06528511,34.53594 6.39381682,34.7163065 6.744,34.705 L27.961,34.705 C28.3111832,34.7163065 28.6397149,34.53594 28.818152,34.2344167 C28.9965891,33.9328934 28.9965891,33.5581066 28.818152,33.2565833 C28.6397149,32.95506 28.3111832,32.7746935 27.961,32.786 Z" id="Path_27"></path>
                <path d="M18.312,38.57 L6.744,38.57 C6.39381682,38.5586935 6.06528511,38.73906 5.886848,39.0405833 C5.70841089,39.3421066 5.70841089,39.7168934 5.886848,40.0184167 C6.06528511,40.31994 6.39381682,40.5003065 6.744,40.489 L18.312,40.489 C18.566934,40.4900689 18.8117353,40.3892696 18.9920025,40.2090025 C19.1722696,40.0287353 19.2730689,39.783934 19.272,39.529 C19.2775229,39.2728297 19.1781216,39.0255285 18.9968453,38.8444411 C18.8155691,38.6633536 18.5681645,38.5642101 18.312,38.57 Z" id="Path_28"></path>
                <path d="M15.433,16.393 C15.4319311,16.647934 15.5327304,16.8927353 15.7129975,17.0730025 C15.8932647,17.2532696 16.138066,17.3540689 16.393,17.353 L27.961,17.353 C28.3111832,17.3643065 28.6397149,17.18394 28.818152,16.8824167 C28.9965891,16.5808934 28.9965891,16.2061066 28.818152,15.9045833 C28.6397149,15.60306 28.3111832,15.4226935 27.961,15.434 L16.393,15.434 C16.1382399,15.4329328 15.8935915,15.5335951 15.7133535,15.7136454 C15.5331155,15.8936956 15.4321983,16.138239 15.433,16.393 Z" id="Path_29"></path>
            </g>
        </g>
    </g>
</svg>