<?xml version="1.0" encoding="UTF-8"?>
<svg width="49px" height="49px" viewBox="0 0 49 49" version="1.1" xmlns="http://www.w3.org/2000/svg" xmlns:xlink="http://www.w3.org/1999/xlink">
    <!-- Generator: Sketch 52 (66869) - http://www.bohemiancoding.com/sketch -->
    <title>Group 7</title>
    <desc>Created with Sketch.</desc>
    <g id="Page-1" stroke="none" stroke-width="1" fill="none" fill-rule="evenodd" opacity="0.574051339">
        <g id="Desktop-HD" transform="translate(-641.000000, -903.000000)" fill="#325FFF" fill-rule="nonzero">
            <g id="Group-7" transform="translate(640.000000, 903.000000)">
                <path d="M48.235,30.782 L42.717,30.782 C42.4089083,30.7320032 42.0955647,30.8331574 41.874861,31.053861 C41.6541574,31.2745647 41.5530032,31.5879083 41.603,31.896 L41.603,33.617 C40.135,33.111 38.717,32.655 37.35,32.149 C34.8913898,31.2394214 32.1978219,31.1858671 29.705,31.997 C28.439,32.402 27.326,32.959 26.212,33.415 C24.643,34.124 23.022,34.833 21.504,35.592 C20.2437138,36.286243 19.6017578,37.7362699 19.935,39.136 C20.0040289,39.3336291 20.0549059,39.5371372 20.087,39.744 C19.7250146,39.610497 19.3702038,39.4582922 19.024,39.288 C16.543,38.022 14.062,36.706 11.531,35.44 C10.385216,34.7451559 8.94977055,34.7382601 7.79736368,35.422064 C6.64495681,36.1058678 5.9631531,37.369076 6.02397199,38.707706 C6.08479087,40.046336 6.87833353,41.2425138 8.088,41.819 C11.176,43.591 14.265,45.363 17.403,47.135 C18.891897,48.0305345 20.6493127,48.3712508 22.365,48.097 C23.378,47.945 24.441,47.797 25.453,47.591 C28.794,47.034 32.186,46.477 35.528,45.92 C37.553,45.62 39.528,45.262 41.603,44.907 L41.603,47.236 C41.603,48.097 41.903,48.4 42.767,48.4 L48.235,48.4 C48.7546374,48.4760125 49.2646087,48.2109564 49.501,47.742 L49.501,31.442 C49.256169,30.9812854 48.7529004,30.7189179 48.235,30.782 Z M41.552,39.338 L41.552,42.682 C41.552,42.982 41.452,43.087 41.147,43.138 C36.996,43.796 32.847,44.505 28.693,45.163 L22.314,46.226 C20.9710969,46.4517477 19.591525,46.2009486 18.414,45.517 C15.275,43.694 12.086,41.872 8.947,40.1 C8.32643618,39.7850439 7.96564947,39.118823 8.041,38.427 C8.10430739,37.7935264 8.51369902,37.2474142 9.104,37.009 C9.63806676,36.803612 10.2374601,36.8598513 10.724,37.161 C13.053,38.376 15.382,39.54 17.66,40.806 C18.6699552,41.3982427 19.8319534,41.6799603 21.001,41.616 C21.609,41.565 22.165,41.716 22.773,41.716 C23.303952,41.7494741 23.8364239,41.6816 24.342,41.516 C26.367,40.858 28.392,40.149 30.417,39.491 C30.822,39.339 31.176,39.137 31.227,38.63 C31.327,37.871 30.67,37.415 29.809,37.668 C27.784,38.326 25.759,39.035 23.784,39.693 C23.3910926,39.8548563 22.9469612,39.8362138 22.569,39.642 C22.0763629,39.3941997 21.7785434,38.8769075 21.8116013,38.32645 C21.8446592,37.7759925 22.2022472,37.2980609 22.721,37.111 C24.493,36.301 26.214,35.542 27.986,34.731 C28.644,34.431 29.353,34.123 30.011,33.87 C32.1451562,33.1269941 34.4706136,33.1450127 36.593,33.921 C38.112,34.427 39.681,34.984 41.2,35.49 C41.4617268,35.538288 41.6397577,35.7831353 41.605,36.047 C41.553,37.161 41.553,38.224 41.553,39.338 L41.552,39.338 Z M47.577,46.578 L43.477,46.578 L43.477,32.706 L47.577,32.706 L47.577,46.578 Z" id="Path_19"></path>
                <path d="M43.274,10.429 C42.7938333,10.4443612 42.3193573,10.3214903 41.907,10.075 C37.807,7.847 33.707,5.675 29.607,3.443 C27.7257575,2.42250278 25.6211864,1.88347697 23.481,1.874 L9,1.874 C9,1.164 9.151,0.354 8.341,0 L1.658,0 C1.25372953,0.199672643 0.99842931,0.612110533 1,1.063 L1,16.707 C0.974428454,16.9827125 1.07291012,17.2555001 1.26870499,17.451295 C1.46449986,17.6470899 1.73728754,17.7455715 2.013,17.72 L7.885,17.72 C8.16940268,17.7427881 8.44892142,17.6361367 8.64585933,17.4296915 C8.84279723,17.2232462 8.93616151,16.9390133 8.9,16.656 L8.9,15.391 L9.86,15.391 L9.86,28.655 C9.86,29.465 10.214,29.819 11.024,29.819 L43.173,29.819 C43.983,29.819 44.337,29.465 44.337,28.705 L44.337,11.543 C44.388,10.784 44.033,10.379 43.274,10.429 Z M7.025,15.8 L2.925,15.8 L2.925,1.924 L7.025,1.924 L7.025,15.8 Z M42.464,12.357 L42.464,14.382 C41.4496745,14.1448416 40.6503095,13.3651141 40.388,12.357 L42.464,12.357 Z M9.556,13.366 L9,13.366 L9,3.8 L23.276,3.8 C25.1080354,3.78585498 26.9156686,4.22051095 28.541,5.066 C31.731,6.787 34.971,8.509 38.16,10.23 C38.234067,10.275122 38.2883568,10.3465559 38.312,10.43 L24.339,10.43 C23.6366754,10.4052295 22.974042,10.7553407 22.5987337,11.3494931 C22.2234254,11.9436455 22.1919233,12.6924235 22.516,13.316 C22.7591463,13.7365381 23.1084619,14.0858537 23.529,14.329 C24.643,15.038 25.807,15.696 26.972,16.405 C27.5083861,16.625619 27.7921511,17.2151429 27.63,17.772 C27.5625156,18.0379381 27.388729,18.2644677 27.1493454,18.3985301 C26.9099619,18.5325924 26.6260106,18.5624104 26.364,18.481 C25.149,18.025 23.934,17.519 22.664,17.013 C20.588,16.152 18.564,15.292 16.437,14.482 C14.2252074,13.7145674 11.896969,13.3369604 9.556,13.366 Z M11.834,27.845 L11.834,25.82 C12.844398,26.0455224 13.6334776,26.834602 13.859,27.845 L11.834,27.845 Z M38.363,27.794 L15.935,27.794 C15.5144395,25.7286624 13.9003376,24.1145605 11.835,23.694 L11.835,15.441 C15.025,15.694 17.809,17.162 20.695,18.327 L22.518,19.086 C23.277,19.386 24.037,19.694 24.796,20.048 C25.4547122,20.3773113 26.1861769,20.5342012 26.922,20.504 C27.7166426,20.5484068 28.4794137,20.1860434 28.947,19.542 C29.8487008,18.5333326 29.9123401,17.0281809 29.099,15.947 C27.6137638,14.6489938 25.9828444,13.5278206 24.239,12.606 C24.188,12.606 24.188,12.506 24.188,12.406 L38.414,12.406 C38.8391877,14.4591208 40.455817,16.056035 42.514,16.456 L42.514,23.746 C40.4349367,24.1244981 38.793096,25.7259948 38.363,27.795 L38.363,27.794 Z M42.463,27.794 L40.439,27.794 C40.6642977,26.7834785 41.4534785,25.9942977 42.464,25.769 L42.463,27.794 Z" id="Path_20"></path>
            </g>
        </g>
    </g>
</svg>