<?xml version="1.0" encoding="UTF-8"?>
<svg width="48px" height="48px" viewBox="0 0 48 48" version="1.1" xmlns="http://www.w3.org/2000/svg" xmlns:xlink="http://www.w3.org/1999/xlink">
    <!-- Generator: Sketch 52 (66869) - http://www.bohemiancoding.com/sketch -->
    <title>Group 6</title>
    <desc>Created with Sketch.</desc>
    <g id="Page-1" stroke="none" stroke-width="1" fill="none" fill-rule="evenodd" opacity="0.574051339">
        <g id="Desktop-HD" transform="translate(-426.000000, -902.000000)" fill="#325FFF" fill-rule="nonzero">
            <g id="Group-6" transform="translate(425.000000, 902.000000)">
                <path d="M42.267,23.078 C42.4230697,23.1945683 42.6143362,23.2542067 42.809,23.247 C43.0508181,23.2442258 43.2819562,23.1469612 43.453,22.976 L47.958,18.471 C48.1442906,18.2826496 48.2426613,18.0245627 48.229,17.76 C48.1958107,17.4946597 48.0623532,17.2520746 47.856,17.082 L43.249,13.66 L43.249,4.446 C43.2500693,4.20300068 43.1540112,3.96964503 42.9821831,3.7978169 C42.810355,3.62598877 42.5769993,3.52993068 42.334,3.531 L36.44,3.531 C36.1970007,3.52993068 35.963645,3.62598877 35.7918169,3.7978169 C35.6199888,3.96964503 35.5239307,4.20300068 35.525,4.446 L35.525,7.901 L25.194,0.178 C24.8590965,-0.0592598251 24.4109035,-0.0592598251 24.076,0.178 L17.538,5.056 L9.509,11.018 L1.379,17.048 C1.17264683,17.2180746 1.03918928,17.4606597 1.006,17.726 C0.970629245,17.9935385 1.07252686,18.2608788 1.277,18.437 L5.782,22.942 C6.10671314,23.2751492 6.62737085,23.3178261 7.002,23.042 L7.646,22.568 L7.646,29.885 L2.87,29.885 C2.38382721,29.8828593 1.91696276,30.0751124 1.57327727,30.4189857 C1.22959177,30.762859 1.03759375,31.2298284 1.04,31.716 L1.04,45.368 C1.03813055,45.8536517 1.23022783,46.3199519 1.57363795,46.6633621 C1.91704807,47.0067722 2.38334835,47.1988695 2.869,47.197 L9.169,47.197 C10.0776051,47.19474 10.8512954,46.5356861 10.998,45.639 L15.298,47.163 C15.3938413,47.2011747 15.4950655,47.2241188 15.598,47.231 L28.785,47.231 C30.3106255,47.2323697 31.7872397,46.6923265 32.952,45.707 L42.911,37.272 C43.6932113,36.606207 44.1702423,35.6503394 44.232,34.625 C44.3007775,33.5991317 43.9328519,32.5919672 43.219,31.852 C42.7806911,31.38262 42.230048,31.0326175 41.619,30.835 L41.619,22.57 L42.267,23.078 Z M37.389,5.361 L41.454,5.361 L41.454,12.272 L37.389,9.257 L37.389,5.361 Z M9.171,45.368 L2.871,45.368 L2.871,31.75 L9.171,31.75 L9.171,32.495 L9.171,45.368 Z M41.861,33.105 C42.228625,33.4820307 42.4140473,34.0003372 42.369,34.525 C42.335223,35.0496838 42.0906826,35.538404 41.691,35.88 L31.732,44.315 C30.8976194,45.0171924 29.8415321,45.4012242 28.751,45.399 L15.742,45.399 L10.999,43.739 L10.999,33.41 L17.774,33.41 C18.6801119,33.4079182 19.5657465,33.6794292 20.315,34.189 L26.48,38.289 C26.7552909,38.4616939 26.9409823,38.746445 26.988,39.068 C27.0235519,39.3866836 26.9532724,39.7082124 26.788,39.983 C26.4432234,40.4465059 25.819413,40.6025631 25.297,40.356 L20.012,37.849 C19.5556275,37.6448896 19.0198624,37.8439476 18.8074767,38.2965282 C18.595091,38.7491088 18.7843613,39.2884094 19.233,39.509 L24.519,42.014 C24.930912,42.2128071 25.3826229,42.315391 25.84,42.314 C26.8162977,42.3117431 27.7337501,41.8468956 28.313,41.061 C28.8064837,40.3898903 29.0025377,39.5454937 28.8552376,38.7256053 C28.7079376,37.9057168 28.2302245,37.1823683 27.534,36.725 L21.334,32.625 C20.2721311,31.9131222 19.0213998,31.5355692 17.743,31.541 L10.966,31.541 C10.8862082,30.741573 10.2959231,30.0868711 9.509,29.925 L9.509,21.215 L24.619,9.968 L39.726,21.215 L39.726,30.734 C39.0863677,30.841485 38.4885899,31.1227311 37.998,31.547 L30.647,37.712 C30.2634383,38.0395049 30.2179952,38.6159382 30.5455,38.9995 C30.8730049,39.3830617 31.4494382,39.4285048 31.833,39.101 L39.184,32.936 C39.9843981,32.2872707 41.1485404,32.3607634 41.861,33.105 Z M25.194,8.071 C24.8590965,7.83374017 24.4109035,7.83374017 24.076,8.071 L6.562,21.113 L3.378,17.925 L10.661,12.505 L10.797,12.405 L11.678,11.761 L17.572,7.391 L24.686,2.106 L45.959,17.925 L42.775,21.109 L25.194,8.071 Z" id="Path_14"></path>
                <path d="M29.294,20.368 L20.01,20.368 C19.7392245,20.3636318 19.4782552,20.469271 19.2867631,20.6607631 C19.095271,20.8522552 18.9896318,21.1132245 18.994,21.384 L18.994,28.6 C18.9896318,28.8707755 19.095271,29.1317448 19.2867631,29.3232369 C19.4782552,29.514729 19.7392245,29.6203682 20.01,29.616 L29.294,29.616 C29.5647755,29.6203682 29.8257448,29.514729 30.0172369,29.3232369 C30.208729,29.1317448 30.3143682,28.8707755 30.31,28.6 L30.31,21.384 C30.2963074,20.8286492 29.8493508,20.3816926 29.294,20.368 Z M28.278,27.584 L21.027,27.584 L21.027,22.401 L28.276,22.401 L28.278,27.584 Z" id="Path_15"></path>
            </g>
        </g>
    </g>
</svg>