<?xml version="1.0" encoding="UTF-8"?>
<svg width="48px" height="37px" viewBox="0 0 48 37" version="1.1" xmlns="http://www.w3.org/2000/svg" xmlns:xlink="http://www.w3.org/1999/xlink">
    <!-- Generator: Sketch 52 (66869) - http://www.bohemiancoding.com/sketch -->
    <title>Group 11</title>
    <desc>Created with Sketch.</desc>
    <g id="Page-1" stroke="none" stroke-width="1" fill="none" fill-rule="evenodd" opacity="0.574051339">
        <g id="Desktop-HD" transform="translate(-203.000000, -778.000000)" fill="#325FFF" fill-rule="nonzero">
            <g id="Group-11" transform="translate(203.000000, 778.000000)">
                <path d="M47.1111562,18.2063492 C47.6020312,18.2063492 48,17.8120274 48,17.3253504 L48,9.10312815 C48,8.61645108 47.6020312,8.22222222 47.1111562,8.22222222 L44.4445312,8.22222222 L44.4445312,5.57941154 C44.4445312,5.36608383 44.3664375,5.16000331 44.2246875,4.99935714 L40.0765312,0.300944446 C39.9076875,0.109729975 39.6638437,1.3203698e-15 39.4075312,1.3203698e-15 C39.1512187,1.3203698e-15 38.907375,0.109729975 38.7385312,0.300944446 L34.590375,4.99935714 C34.448625,5.1599104 34.3705312,5.36608383 34.3705312,5.57941154 L34.3705312,8.22222222 L29.0371875,8.22222222 L29.0371875,5.57941154 C29.0371875,5.36608383 28.9590937,5.16000331 28.81725,4.99935714 L24.6690937,0.300944446 C24.5003437,0.109729975 24.2565,1.3203698e-15 24.0001875,1.3203698e-15 C23.743875,1.3203698e-15 23.5000312,0.109729975 23.3311875,0.300944446 L19.1830312,4.99935714 C19.0412812,5.1599104 18.9631875,5.36608383 18.9631875,5.57941154 L18.9631875,8.22222222 L13.6298437,8.22222222 L13.6298437,5.57941154 C13.6298437,5.36608383 13.55175,5.16000331 13.4099062,4.99935714 L9.26146875,0.300944446 C9.09271875,0.109729975 8.848875,0 8.5925625,0 C8.33625,0 8.09240625,0.109729975 7.9235625,0.300944446 L3.77540625,4.99935714 C3.63365625,5.1599104 3.5555625,5.36608383 3.5555625,5.57941154 L3.5555625,8.22222222 L0.8889375,8.22222222 C0.3980625,8.22222222 0,8.616544 0,9.10312815 L0,17.3253504 C0,17.8120274 0.39796875,18.2063492 0.8889375,18.2063492 L3.5555625,18.2063492 L3.5555625,21.1428571 L0.8889375,21.1428571 C0.3980625,21.1428571 0,21.5371789 0,22.023856 L0,30.2460782 C0,30.7327553 0.39796875,31.1269841 0.8889375,31.1269841 L3.5555625,31.1269841 L3.5555625,35.2380952 L2.07403125,35.2380952 C1.58315625,35.2380952 1.18509375,35.632417 1.18509375,36.1190012 C1.18509375,36.6056782 1.5830625,37 2.07403125,37 L45.925875,37 C46.41675,37 46.8147187,36.6056782 46.8147187,36.1190012 C46.8147187,35.6323241 46.41675,35.2380952 45.925875,35.2380952 L44.4444375,35.2380952 L44.4444375,31.1269841 L47.1110625,31.1269841 C47.6019375,31.1269841 47.9999062,30.7326624 47.9999062,30.2460782 L47.9999062,22.023856 C47.9999062,21.5371789 47.6019375,21.1428571 47.1110625,21.1428571 L44.4444375,21.1428571 L44.4444375,18.2063492 L47.1111562,18.2063492 Z M44.4444375,9.98412698 L46.2222187,9.98412698 L46.2222187,16.4444444 L44.4444375,16.4444444 L44.4444375,9.98412698 Z M3.5555625,29.3649865 L1.77778125,29.3649865 L1.77778125,22.904669 L3.5555625,22.904669 L3.5555625,29.3649865 Z M3.5555625,16.4444444 L1.77778125,16.4444444 L1.77778125,9.98412698 L3.5555625,9.98412698 L3.5555625,16.4444444 Z M11.851875,35.2380023 L5.33334375,35.2380023 L5.33334375,5.9103668 L8.5925625,2.21884974 L11.8517812,5.9103668 L11.8517812,35.2380023 L11.851875,35.2380023 Z M18.963,35.2380023 L13.6296562,35.2380023 L13.6296562,31.1268912 L18.963,31.1268912 L18.963,35.2380023 Z M18.963,29.3649865 L13.6296562,29.3649865 L13.6296562,22.904669 L18.963,22.904669 L18.963,29.3649865 Z M18.963,21.1427642 L13.6296562,21.1427642 L13.6296562,18.2063492 L18.963,18.2063492 L18.963,21.1427642 Z M18.963,16.4444444 L13.6296562,16.4444444 L13.6296562,9.98412698 L18.963,9.98412698 L18.963,16.4444444 Z M27.2592187,35.2380023 L20.7406875,35.2380023 L20.7406875,5.9103668 L24,2.21866391 L27.2592187,5.91027389 L27.2592187,35.2380023 Z M34.3703437,35.2380023 L29.037,35.2380023 L29.037,31.1268912 L34.3703437,31.1268912 L34.3703437,35.2380023 Z M34.3703437,29.3649865 L29.037,29.3649865 L29.037,22.904669 L34.3703437,22.904669 L34.3703437,29.3649865 Z M34.3703437,21.1427642 L29.037,21.1427642 L29.037,18.2063492 L34.3703437,18.2063492 L34.3703437,21.1427642 Z M34.3703437,16.4444444 L29.037,16.4444444 L29.037,9.98412698 L34.3703437,9.98412698 L34.3703437,16.4444444 Z M42.6666562,35.2380023 L36.148125,35.2380023 L36.148125,5.9103668 L39.4073437,2.21875683 L42.6665625,5.9103668 L42.6665625,35.2380023 L42.6666562,35.2380023 Z M46.2222187,22.904669 L46.2222187,29.3649865 L44.4444375,29.3649865 L44.4444375,22.904669 L46.2222187,22.904669 Z" id="Shape"></path>
                <path d="M7,12.4998576 C6.99990508,13.3268154 7.67268873,13.9997152 8.49971524,14 C8.49981016,14 8.50009492,14 8.50028476,14 C9.32740619,13.9997152 10.0000949,13.3267205 10,12.5000475 C10,12.099383 9.84414352,11.7225439 9.56071632,11.4392976 C9.27738404,11.1559563 8.90074669,11 8.50009492,11 C7.67316332,10.9999051 7.00028476,11.6726151 7,12.4998576 Z" id="Shape"></path>
                <path d="M8.49981016,25 C7.6730684,25 7.00037967,25.67271 7,26.4998576 C6.99990508,27.3268154 7.67268873,27.9997152 8.49981016,28 C8.49990508,28 8.50018984,28 8.50037967,28 C9.32740619,27.9997152 10.0000949,27.3267205 10,26.5000475 C10,26.0994779 9.84414352,25.7227337 9.56081124,25.4393925 C9.27747896,25.1560513 8.90084161,25 8.49981016,25 Z" id="Shape"></path>
                <path d="M23,12.4998576 C22.9999051,13.3268154 23.6725938,13.9997152 24.4997152,14 C24.4998101,14 24.5000949,14 24.5002847,14 C25.3274062,13.9997152 26.0000949,13.3267205 26,12.5000475 C26.0000949,12.099383 25.8441435,11.7225439 25.5607163,11.4392976 C25.277384,11.1559563 24.9007467,11 24.5000949,11 C23.6731633,10.9999051 23.0001898,11.6726151 23,12.4998576 Z" id="Shape"></path>
                <path d="M24.4998576,25 C23.6730897,25 23.0001898,25.67271 23,26.4998576 C22.9999051,27.3268154 23.6726151,27.9997152 24.4997627,28 C24.5000474,28 24.5002373,28 24.5003322,28 C25.3273849,27.9997152 26.0001898,27.3267205 26,26.5000475 C26.0000949,26.0994779 25.8441385,25.7227337 25.5607973,25.4393925 C25.2774561,25.1560513 24.9009017,25 24.4998576,25 Z" id="Shape"></path>
                <path d="M38,12.4998576 C37.9999051,13.3268154 38.6725938,13.9997152 39.4997152,14 C39.4998101,14 39.5001898,14 39.5002847,14 C40.3274062,13.9997152 41.0000949,13.3267205 41,12.5000475 C41.0000949,12.099383 40.8441435,11.7225439 40.5607163,11.4392976 C40.2772891,11.1559563 39.9007467,11 39.5000949,11 C38.6731633,10.9999051 38.0002848,11.6726151 38,12.4998576 Z" id="Shape"></path>
                <path d="M39.4998101,25 C38.6730684,25 38.0001898,25.67271 38,26.4998576 C37.9999051,27.3268154 38.6725938,27.9997152 39.4998101,28 C39.4999051,28 39.5002847,28 39.5003797,28 C40.3274062,27.9997152 41.0001898,27.3267205 41,26.5000475 C41.0000949,26.0994779 40.8441435,25.7227337 40.5608112,25.4393925 C40.277384,25.1560513 39.9008416,25 39.4998101,25 Z" id="Shape"></path>
            </g>
        </g>
    </g>
</svg>