<?xml version="1.0" encoding="UTF-8"?>
<svg width="47px" height="47px" viewBox="0 0 47 47" version="1.1" xmlns="http://www.w3.org/2000/svg" xmlns:xlink="http://www.w3.org/1999/xlink">
    <!-- Generator: Sketch 52 (66869) - http://www.bohemiancoding.com/sketch -->
    <title>Group 12</title>
    <desc>Created with Sketch.</desc>
    <g id="Page-1" stroke="none" stroke-width="1" fill="none" fill-rule="evenodd" opacity="0.574051339">
        <g id="Desktop-HD" transform="translate(-426.000000, -774.000000)" fill="#325FFF" fill-rule="nonzero">
            <g id="Group-12" transform="translate(426.000000, 774.000000)">
                <path d="M10,20 C12.7575,20 15,17.7575 15,15 C15,12.2425 12.7575,10 10,10 C7.2425,10 5,12.2425 5,15 C5,17.7575 7.2425,20 10,20 Z M10,11.6666667 C11.8383333,11.6666667 13.3333333,13.1616667 13.3333333,15 C13.3333333,16.8383333 11.8383333,18.3333333 10,18.3333333 C8.16166667,18.3333333 6.66666667,16.8383333 6.66666667,15 C6.66666667,13.1616667 8.16166667,11.6666667 10,11.6666667 Z" id="Shape"></path>
                <path d="M37,20 C39.7575,20 42,17.7575 42,15 C42,12.2425 39.7575,10 37,10 C34.2425,10 32,12.2425 32,15 C32,17.7575 34.2425,20 37,20 Z M37,11.6666667 C38.8383333,11.6666667 40.3333333,13.1616667 40.3333333,15 C40.3333333,16.8383333 38.8383333,18.3333333 37,18.3333333 C35.1616667,18.3333333 33.6666667,16.8383333 33.6666667,15 C33.6666667,13.1616667 35.1616667,11.6666667 37,11.6666667 Z" id="Shape"></path>
                <path d="M45.3214286,22 L45.3214286,32.8333333 C45.3214286,34.2116667 44.19175,35.3333333 42.8035714,35.3333333 L42.8035714,26.1666667 C42.8035714,23.8691667 40.9210536,22 38.6071429,22 L34.4107143,22 C33.9474286,22 33.5714286,22.3733333 33.5714286,22.8333333 L33.5714286,26.1666667 L33.5714286,27 L33.5714286,27.8333333 L26.8571429,27.8333333 C26.3938571,27.8333333 26.0178571,28.2066667 26.0178571,28.6666667 L26.0178571,31.1666667 L20.9821429,31.1666667 L20.9821429,28.6666667 C20.9821429,28.2066667 20.6061429,27.8333333 20.1428571,27.8333333 L13.4285714,27.8333333 L13.4285714,27 L13.4285714,26.1666667 L13.4285714,22.8333333 C13.4285714,22.3733333 13.0525714,22 12.5892857,22 L8.39285714,22 C6.07894643,22 4.19642857,23.8691667 4.19642857,26.1666667 L4.19642857,35.3333333 C2.80825,35.3333333 1.67857143,34.2116667 1.67857143,32.8333333 L1.67857143,22 L0,22 L0,32.8333333 C0,34.5375 1.03819643,36.0016667 2.51785714,36.6466667 L2.51785714,47 L4.19642857,47 L4.19642857,37 L5.03571429,37 L5.875,37 L12.5892857,37 L12.5892857,46.1666667 C12.5892857,46.6266667 12.9652857,47 13.4285714,47 L15.9464286,47 L16.7857143,47 L17.625,47 L17.625,46.1666667 L17.625,33.6666667 L17.625,32.8333333 L20.1428571,32.8333333 L26.8571429,32.8333333 L29.375,32.8333333 L29.375,33.6666667 L29.375,46.1666667 L29.375,47 L30.2142857,47 L31.0535714,47 L33.5714286,47 C34.0347143,47 34.4107143,46.6266667 34.4107143,46.1666667 L34.4107143,37 L41.125,37 L41.9642857,37 L42.8035714,37 L42.8035714,47 L44.4821429,47 L44.4821429,36.6466667 C45.9618036,36.0016667 47,34.5375 47,32.8333333 L47,22 L45.3214286,22 Z M16.7857143,31.1666667 L15.1071429,31.1666667 L10.0714286,31.1666667 L10.0714286,26.1666667 L8.39285714,26.1666667 L8.39285714,32 C8.39285714,32.46 8.76885714,32.8333333 9.23214286,32.8333333 L15.1071429,32.8333333 C15.5695893,32.8333333 15.9464286,33.2075 15.9464286,33.6666667 L15.9464286,45.3333333 L14.2678571,45.3333333 L14.2678571,36.1666667 C14.2678571,35.7066667 13.8918571,35.3333333 13.4285714,35.3333333 L5.875,35.3333333 L5.875,26.1666667 C5.875,24.7883333 7.00467857,23.6666667 8.39285714,23.6666667 L11.75,23.6666667 L11.75,26.1666667 L11.75,27 L11.75,28.6666667 C11.75,29.1266667 12.126,29.5 12.5892857,29.5 L19.3035714,29.5 L19.3035714,31.1666667 L16.7857143,31.1666667 Z M33.5714286,35.3333333 C33.1081429,35.3333333 32.7321429,35.7066667 32.7321429,36.1666667 L32.7321429,45.3333333 L31.0535714,45.3333333 L31.0535714,33.6666667 C31.0535714,33.2075 31.4304107,32.8333333 31.8928571,32.8333333 L37.7678571,32.8333333 C38.2311429,32.8333333 38.6071429,32.46 38.6071429,32 L38.6071429,26.1666667 L36.9285714,26.1666667 L36.9285714,31.1666667 L31.8928571,31.1666667 L30.2142857,31.1666667 L27.6964286,31.1666667 L27.6964286,29.5 L34.4107143,29.5 C34.874,29.5 35.25,29.1266667 35.25,28.6666667 L35.25,27 L35.25,26.1666667 L35.25,23.6666667 L38.6071429,23.6666667 C39.9953214,23.6666667 41.125,24.7883333 41.125,26.1666667 L41.125,35.3333333 L33.5714286,35.3333333 Z" id="Shape"></path>
                <path d="M15.5,8.57142857 L15.5,11.1428571 C15.5,11.5122857 15.7291667,11.8388571 16.07,11.9562857 C16.1566667,11.9854286 16.2458333,12 16.3333333,12 C16.5908333,12 16.8391667,11.8765714 17,11.6571429 L19.25,8.57142857 L25.5,8.57142857 C26.8783333,8.57142857 28,7.41771429 28,6 L28,2.57142857 C28,1.15371429 26.8783333,0 25.5,0 L15.5,0 C14.1216667,0 13,1.15371429 13,2.57142857 L13,6 C13,7.41771429 14.1216667,8.57142857 15.5,8.57142857 Z M14.6666667,2.57142857 C14.6666667,2.09914286 15.0408333,1.71428571 15.5,1.71428571 L25.5,1.71428571 C25.9591667,1.71428571 26.3333333,2.09914286 26.3333333,2.57142857 L26.3333333,6 C26.3333333,6.47228571 25.9591667,6.85714286 25.5,6.85714286 L18.8333333,6.85714286 C18.5708333,6.85714286 18.3241667,6.984 18.1666667,7.2 L17.1666667,8.57142857 L17.1666667,7.71428571 C17.1666667,7.24114286 16.7933333,6.85714286 16.3333333,6.85714286 L15.5,6.85714286 C15.0408333,6.85714286 14.6666667,6.47228571 14.6666667,6 L14.6666667,2.57142857 Z" id="Shape"></path>
                <polygon id="Rectangle-path" points="17 4 25 4 25 6 17 6"></polygon>
                <polygon id="Rectangle-path" points="23 21 28 21 28 23 23 23"></polygon>
                <path d="M22.437454,18 C21.0936044,18 20,19.0768 20,20.4 L20,23.6 C20,24.9232 21.0936044,26 22.437454,26 L28.9373313,26 C30.2811809,26 31.3747853,24.9232 31.3747853,23.6 L31.3747853,23.0424 L32.8632572,20.844 C33.0298165,20.5984 33.0452537,20.2832 32.9038814,20.0232 C32.7625091,19.7624 32.4870768,19.6 32.1872699,19.6 L31.2358504,19.6 C30.9002942,18.6688 29.9968113,18 28.9373313,18 L22.437454,18 Z M29.749816,20.4 C29.749816,20.8416 30.1138091,21.2 30.5623006,21.2 L30.6687361,21.2 L29.8863134,22.356 C29.7977525,22.4872 29.749816,22.6424 29.749816,22.8 L29.749816,23.6 C29.749816,24.0408 29.3850103,24.4 28.9373313,24.4 L22.437454,24.4 C21.9897749,24.4 21.6249693,24.0408 21.6249693,23.6 L21.6249693,20.4 C21.6249693,19.9592 21.9897749,19.6 22.437454,19.6 L28.9373313,19.6 C29.3850103,19.6 29.749816,19.9592 29.749816,20.4 Z" id="Shape"></path>
                <polygon id="Rectangle-path" points="20 13 22 13 22 15 20 15"></polygon>
                <polygon id="Rectangle-path" points="23 13 25 13 25 15 23 15"></polygon>
                <polygon id="Rectangle-path" points="26 13 28 13 28 15 26 15"></polygon>
            </g>
        </g>
    </g>
</svg>