<?xml version="1.0" encoding="UTF-8"?>
<svg width="48px" height="49px" viewBox="0 0 48 49" version="1.1" xmlns="http://www.w3.org/2000/svg" xmlns:xlink="http://www.w3.org/1999/xlink">
    <!-- Generator: Sketch 52 (66869) - http://www.bohemiancoding.com/sketch -->
    <title>Group 8</title>
    <desc>Created with Sketch.</desc>
    <g id="Page-1" stroke="none" stroke-width="1" fill="none" fill-rule="evenodd" opacity="0.574051339">
        <g id="Desktop-HD" transform="translate(-861.000000, -903.000000)" fill="#325FFF" fill-rule="nonzero">
            <g id="Group-8" transform="translate(861.000000, 903.000000)">
                <path d="M47.54,22.169 C47.0038115,21.4296807 46.1116283,21.0356123 45.2040119,21.1372173 C44.2963955,21.2388223 43.5134351,21.8204183 43.154,22.66 L42.454,24.291 C42.2943753,18.7911196 39.5584218,13.6862534 35.067,10.508 C36.8150096,8.81541086 37.3606738,6.23121781 36.4461715,3.97642709 C35.5316692,1.72163636 33.3400716,0.247627158 30.9068874,0.250854582 C28.4737032,0.254082006 26.2860237,1.73389997 25.3775061,3.99110878 C24.4689886,6.2483176 25.0215063,8.831054 26.774,10.519 C25.8281132,11.1631321 24.9561727,11.9096474 24.174,12.745 C23.3842318,11.9015386 22.5027734,11.1488777 21.546,10.501 C23.2919983,8.80514136 23.8336292,6.21910908 22.9149021,3.96513768 C21.996175,1.71116627 19.8010742,0.240635963 17.3670685,0.248562408 C14.9330628,0.256488853 12.7475862,1.7412847 11.8435587,4.00119198 C10.9395313,6.26109927 11.4979936,8.84354905 13.255,10.528 C11.104,11.997 6.368,16.15 5.897,24.398 L5.152,22.661 C4.58646042,21.3777664 3.08773362,20.7959604 1.8045,21.3615 C0.521266384,21.9270396 -0.0605395838,23.4257664 0.505,24.709 L3.624,31.57 C4.045075,32.4986309 4.63047905,33.343537 5.352,34.064 L10.257,38.97 C9.9813529,39.2621767 9.82725321,39.6483198 9.826,40.05 L9.826,46.417 C9.82655162,47.2960087 10.5389913,48.0084484 11.418,48.009 L20.172,48.009 C21.0510087,48.0084484 21.7634484,47.2960087 21.764,46.417 L21.764,40.85 L26.539,40.85 L26.539,46.421 C26.5395516,47.3000087 27.2519913,48.0124484 28.131,48.013 L36.885,48.013 C37.7640087,48.0124484 38.4764484,47.3000087 38.477,46.421 L38.477,40.05 C38.476239,39.6471455 38.3217206,39.2597764 38.045,38.967 L42.95,34.062 C43.6715548,33.3415652 44.2569633,32.4966526 44.678,31.568 L47.797,24.709 C48.1746039,23.8777667 48.0764563,22.9077477 47.54,22.169 Z M26.54,6.23 C26.54,3.81264965 28.4996496,1.853 30.917,1.853 C33.3343504,1.853 35.294,3.81264965 35.294,6.23 C35.294,8.64735035 33.3343504,10.607 30.917,10.607 C29.7558009,10.6075306 28.64198,10.1466179 27.8207006,9.3257137 C26.9994213,8.50480946 26.5379999,7.39119918 26.538,6.23 L26.54,6.23 Z M28.169,11.523 C29.901526,12.4293663 31.9694183,12.4237552 33.697,11.508 C35.215,12.38 41.178,16.452 40.904,26.38 C39.9223065,25.9523997 38.8031216,25.9732065 37.838,26.437 C37.8095377,23.3554562 37.1945869,20.3075131 36.026,17.456 C35.9349051,17.1645823 35.6858789,16.950427 35.3841071,16.9039907 C35.0823353,16.8575544 34.7804461,16.9869355 34.6059539,17.2374849 C34.4314617,17.4880344 34.4147975,17.816057 34.563,18.083 C34.585,18.135 36.739,23.246 36.14,27.671 C35.0578077,28.5774846 33.8390943,29.3071602 32.529,29.833 C32.3717469,29.8918854 32.2175525,29.9586362 32.067,30.033 C31.761,25.433 29.842,22.933 28.667,21.817 C29.7084686,20.3798376 30.0004996,18.5315348 29.4528436,16.8432914 C28.9051877,15.1550481 27.5837842,13.8301337 25.897,13.278 C26.5878923,12.6125366 27.3490226,12.0240856 28.167,11.523 L28.169,11.523 Z M24.152,14.586 C25.7613553,14.586 27.2122431,15.5554522 27.8281167,17.0423026 C28.4439903,18.529153 28.1035639,20.2405919 26.9655779,21.3785779 C25.8275919,22.5165639 24.116153,22.8569903 22.6293026,22.2411167 C21.1424522,21.6252431 20.173,20.1743553 20.173,18.565 C20.1729999,16.3678494 21.9538495,14.5865522 24.151,14.586 L24.152,14.586 Z M13.009,6.23 C13.009,3.81264965 14.9686496,1.853 17.386,1.853 C19.8033504,1.853 21.763,3.81264965 21.763,6.23 C21.763,8.64735035 19.8033504,10.607 17.386,10.607 C16.2251474,10.607 15.1118403,10.1458531 14.2909936,9.32500638 C13.4701469,8.50415965 13.009,7.39085258 13.009,6.23 Z M14.634,11.521 C16.3655573,12.4284389 18.4330684,12.4243241 20.161,11.51 C20.982201,12.0108065 21.7463788,12.5996158 22.44,13.266 C20.7449391,13.8097737 19.4129931,15.1327085 18.8577254,16.8240391 C18.3024576,18.5153696 18.5910887,20.3703437 19.634,21.813 C18.462,22.928 16.543,25.431 16.234,30.029 C16.081,29.96 15.934,29.886 15.772,29.829 C14.4619655,29.3030397 13.2432703,28.573375 12.161,27.667 C11.561,23.252 13.716,18.131 13.739,18.079 C13.8614184,17.6873767 13.6677068,17.2666292 13.2905715,17.1049998 C12.9134363,16.9433704 12.4751628,17.0932672 12.276,17.452 C11.1074365,20.3035202 10.4924867,23.3514587 10.464,26.433 C9.51475145,25.9797023 8.4163555,25.9567508 7.449,26.37 C7.179,16.499 13.081,12.42 14.634,11.521 Z M6.478,32.94 C5.89340209,32.3538822 5.41916332,31.6672522 5.078,30.913 L1.954,24.05 C1.81941785,23.7586749 1.84435848,23.4185754 2.02,23.15 C2.19268547,22.8756683 2.49587815,22.7111863 2.82,22.716 C3.19855498,22.7157865 3.54062573,22.9417343 3.689,23.29 L5.469,27.443 C5.94225171,28.5505762 6.6235611,29.5570945 7.476,30.408 L11.107,34.04 C11.4252345,34.2969362 11.8860236,34.2724515 12.1752375,33.9832375 C12.4644515,33.6940236 12.4889362,33.2332345 12.232,32.915 L8.597,29.279 C8.23159002,28.9138127 7.90300646,28.5135504 7.616,28.084 C8.38051549,27.4929568 9.45259714,27.5108179 10.197,28.127 C10.425,28.319 10.649,28.502 10.87,28.678 C10.9039265,28.7106035 10.9407444,28.7400578 10.98,28.766 C12.2589207,29.8571413 13.7103832,30.7280188 15.275,31.343 C16.0368968,31.6202644 16.7016049,32.1133228 17.188,32.762 C18.1176345,33.9699265 18.6110718,35.4569349 18.588,36.981 L18.588,38.462 L11.997,38.462 L6.478,32.94 Z M11.418,46.42 L11.418,40.05 L20.172,40.05 L20.172,46.417 L11.418,46.42 Z M26.76,39.257 L21.542,39.257 C21.2610987,38.764681 20.7388124,38.4596962 20.172,38.457 L20.172,36.98 C20.172,36.728 20.161,36.48 20.14,36.23 C20.1561074,36.179266 20.1668331,36.1269782 20.172,36.074 C20.172,36.026 20.197,31.274 22.378,28.621 C22.5955828,28.4063124 22.6718129,28.086405 22.5744294,27.7966647 C22.4770458,27.5069243 22.2230722,27.2980005 21.9199917,27.2583111 C21.6169112,27.2186217 21.3177054,27.3551049 21.149,27.61 C20.0480104,29.0738458 19.3064115,30.7759266 18.984,32.579 C18.8167805,32.2963655 18.6310414,32.0251062 18.428,31.767 C18.2318437,31.5222584 18.0193588,31.2910641 17.792,31.075 C17.852,26.345 19.755,23.905 20.741,22.959 C22.7449181,24.527457 25.5600819,24.527457 27.564,22.959 C28.55,23.905 30.452,26.345 30.513,31.075 C30.2856368,31.2910598 30.0731516,31.5222544 29.877,31.767 C29.6739042,32.0250663 29.4881626,32.2963292 29.321,32.579 C28.9985885,30.7759266 28.2569896,29.0738458 27.156,27.61 C26.8643198,27.322201 26.4023345,27.3013239 26.085885,27.5616416 C25.7694355,27.8219593 25.7008423,28.2793008 25.927,28.621 C28.101,31.265 28.133,36.027 28.133,36.075 C28.1382647,36.1276363 28.1489891,36.1795823 28.165,36.23 C28.145,36.478 28.133,36.73 28.133,36.98 L28.133,38.461 C27.5659419,38.4618026 27.0424562,38.7652947 26.76,39.257 Z M36.885,46.42 L28.13,46.42 L28.13,40.05 L36.884,40.05 L36.885,46.42 Z M46.348,24.05 L43.229,30.911 C42.8878748,31.6652738 42.4136316,32.3519102 41.829,32.938 L36.307,38.459 L29.722,38.459 L29.722,36.98 C29.6988493,35.4559228 30.192295,33.968889 31.122,32.761 C31.6083951,32.1123228 32.2731032,31.6192644 33.035,31.342 C34.6014281,30.7276137 36.0546307,29.856706 37.335,28.765 C37.3738551,28.7393085 37.4103338,28.7101925 37.444,28.678 C37.665,28.501 37.889,28.319 38.118,28.126 C38.86153,27.5077861 39.934102,27.487024 40.701,28.076 C40.4126928,28.5075239 40.0824191,28.9094797 39.715,29.276 L36.079,32.912 C35.8285112,33.2293372 35.8541488,33.6836835 36.1387469,33.9708271 C36.4233449,34.2579708 36.8774449,34.2876531 37.197,34.04 L40.833,30.404 C41.6842576,29.5531285 42.3645311,28.5469756 42.837,27.44 L44.617,23.287 C44.746915,22.9678497 45.0400885,22.744582 45.3822918,22.7041882 C45.7244951,22.6637944 46.0615959,22.8126643 46.2622501,23.0927941 C46.4629043,23.3729238 46.4953709,23.7400002 46.347,24.051 L46.348,24.05 Z" id="Path_16"></path>
                <path d="M18.581,42.441 L17.781,42.441 C17.3721675,42.4820373 17.0608999,42.8261131 17.0608999,43.237 C17.0608999,43.6478869 17.3721675,43.9919627 17.781,44.033 L18.581,44.033 C18.8844371,44.063458 19.1787969,43.918751 19.3399987,43.659877 C19.5012004,43.4010029 19.5012004,43.0729971 19.3399987,42.814123 C19.1787969,42.555249 18.8844371,42.410542 18.581,42.441 Z" id="Path_17"></path>
                <path d="M29.722,44.033 L30.522,44.033 C30.8254371,44.063458 31.1197969,43.918751 31.2809987,43.659877 C31.4422004,43.4010029 31.4422004,43.0729971 31.2809987,42.814123 C31.1197969,42.555249 30.8254371,42.410542 30.522,42.441 L29.722,42.441 C29.4185629,42.410542 29.1242031,42.555249 28.9630013,42.814123 C28.8017996,43.0729971 28.8017996,43.4010029 28.9630013,43.659877 C29.1242031,43.918751 29.4185629,44.063458 29.722,44.033 Z" id="Path_18"></path>
            </g>
        </g>
    </g>
</svg>