<?xml version="1.0" encoding="utf-8"?>
<!-- Generator: Adobe Illustrator 23.0.1, SVG Export Plug-In . SVG Version: 6.00 Build 0)  -->
<svg width="42px" height="42px" version="1.1" id="Layer_1" xmlns="http://www.w3.org/2000/svg" xmlns:xlink="http://www.w3.org/1999/xlink" x="0px" y="0px"
	 viewBox="0 0 58.1 62" style="enable-background:new 0 0 58.1 62;" xml:space="preserve">
<style type="text/css">
	.st0{fill:#89A3FF;}
</style>
<g>
	<title>working yeni versiya</title>
	<g>
		<g>
			<path class="st0" d="M2.5,60.9H0.4V36c0-2.5,1.6-4.8,4-5.7l13.2-4.9c0.8-0.3,1.8-0.1,2.4,0.6l3.4,4.1l3.8-4.4
				c0.6-0.7,1.6-0.9,2.5-0.6l12.5,5.3c2.3,1,3.7,3.2,3.7,5.6v3.6h-2.1v-3.6c0-1.6-0.9-3-2.4-3.6l-12.5-5.3l-5.5,6.3l-5-6L5.1,32.3
				c-1.5,0.6-2.6,2.1-2.6,3.7V60.9z"/>
			<path class="st0" d="M2.8,61.1H0.1V36c0-2.6,1.7-5,4.1-6l13.2-4.9c0.9-0.3,2-0.1,2.6,0.7l3.2,3.8l3.6-4.2c0.7-0.8,1.8-1,2.7-0.6
				l12.5,5.3c2.3,1,3.9,3.3,3.9,5.8v3.9h-2.6v-3.9c0-1.5-0.9-2.8-2.3-3.4l-12.4-5.3l-5.5,6.4l-5.1-6.1L5.2,32.5
				C3.7,33,2.8,34.4,2.8,36V61.1z M0.6,60.6h1.6V36c0-1.8,1.1-3.3,2.8-4l13.4-4.9l5,5.9l5.4-6.2l12.7,5.4c1.6,0.7,2.6,2.2,2.6,3.9
				v3.4h1.6v-3.4c0-2.3-1.4-4.5-3.6-5.4l-12.5-5.3c-0.8-0.3-1.6-0.1-2.2,0.5l-4,4.6l-3.6-4.3c-0.5-0.6-1.3-0.8-2.1-0.5L4.4,30.5
				c-2.3,0.8-3.8,3.1-3.8,5.5V60.6z"/>
		</g>
		<g>
			<polygon class="st0" points="17.6,37.3 13.1,28.8 15,27.8 18.3,34.1 23.3,30.4 28.5,34.1 32.2,27.6 34,28.6 29.1,37.3 23.3,33 
							"/>
			<path class="st0" d="M17.5,37.7l-4.7-8.9l2.3-1.2l3.3,6.2l4.9-3.6l5.1,3.7l3.7-6.5l2.3,1.3l-5.2,9.1l-5.9-4.3L17.5,37.7z
				 M13.5,28.9l4.2,8l5.7-4.2l5.7,4.2l4.6-8.2l-1.4-0.8l-3.7,6.6l-5.2-3.8l-5.1,3.8l-3.3-6.3L13.5,28.9z"/>
		</g>
		<g>
			<path class="st0" d="M23.1,22.2c-6,0-10.9-4.9-10.9-10.9c0-6,4.9-10.9,10.9-10.9c6,0,10.9,4.9,10.9,10.9
				C34.1,17.3,29.2,22.2,23.1,22.2z M23.1,2.5c-4.8,0-8.8,3.9-8.8,8.8s3.9,8.8,8.8,8.8s8.8-3.9,8.8-8.8S28,2.5,23.1,2.5z"/>
			<path class="st0" d="M23.1,22.5c-6.2,0-11.2-5-11.2-11.2S17,0.1,23.1,0.1s11.2,5,11.2,11.2S29.3,22.5,23.1,22.5z M23.1,0.6
				c-5.9,0-10.7,4.8-10.7,10.7S17.3,22,23.1,22c5.9,0,10.7-4.8,10.7-10.7S29,0.6,23.1,0.6z M23.1,20.4c-5,0-9-4.1-9-9c0-5,4.1-9,9-9
				c5,0,9,4.1,9,9C32.2,16.3,28.1,20.4,23.1,20.4z M23.1,2.8c-4.7,0-8.5,3.8-8.5,8.5s3.8,8.5,8.5,8.5c4.7,0,8.5-3.8,8.5-8.5
				S27.9,2.8,23.1,2.8z"/>
		</g>
		<g>
			<path class="st0" d="M55.8,52.1h-7.5V50h7.5c0.1,0,0.2-0.1,0.2-0.2v-4.3c0-0.1-0.1-0.2-0.2-0.2H35.2c-0.1,0-0.2,0.1-0.2,0.2v4.3
				c0,0.1,0.1,0.2,0.2,0.2h7.7v2.1h-7.7c-1.3,0-2.3-1-2.3-2.3v-4.3c0-1.3,1-2.3,2.3-2.3h20.5c1.3,0,2.3,1,2.3,2.3v4.3
				C58.1,51.1,57,52.1,55.8,52.1z"/>
			<path class="st0" d="M55.8,52.4H48v-2.6h7.7v-4.2H35.3v4.1h7.9v2.6h-8c-1.4,0-2.5-1.1-2.6-2.5v-4.3c0-1.4,1.2-2.6,2.6-2.6h20.5
				c1.4,0,2.6,1.2,2.6,2.6v4.3C58.3,51.2,57.2,52.4,55.8,52.4z M48.5,51.9h7.2c1.1,0,2.1-0.9,2.1-2.1v-4.3c0-1.1-0.9-2.1-2.1-2.1
				H35.2c-1.1,0-2.1,0.9-2.1,2.1v4.3c0,1.1,0.9,2,2.1,2h7.5v-1.6h-7.5c-0.2,0-0.4-0.2-0.4-0.4v-4.3c0-0.2,0.2-0.4,0.4-0.4h20.5
				c0.2,0,0.4,0.2,0.4,0.4v4.3c0,0.2-0.2,0.4-0.4,0.4h-7.2V51.9z"/>
		</g>
		<g>
			<path class="st0" d="M51.1,43.9H49v-3.3c0-0.1-0.1-0.2-0.2-0.2l-6.6,0c-0.1,0-0.2,0.1-0.2,0.2v3.3h-2.1v-3.3c0-1.3,1-2.3,2.3-2.3
				h6.7c1.3,0,2.3,1.1,2.3,2.3V43.9z"/>
			<path class="st0" d="M51.3,44.2h-2.6v-3.5l-6.5,0v3.5h-2.6v-3.5c0-1.4,1.2-2.6,2.6-2.6h6.7c1.4,0,2.5,1.2,2.5,2.6V44.2z
				 M49.2,43.7h1.6v-3c0-1.1-0.9-2-2-2.1h-6.6c-1.1,0-2.1,0.9-2.1,2.1v3h1.6v-3c0-0.2,0.2-0.4,0.4-0.4l6.6,0c0.2,0,0.4,0.2,0.4,0.4
				V43.7z"/>
		</g>
		<g>
			<path class="st0" d="M46.6,54.1C46.6,54.1,46.6,54.1,46.6,54.1h-2.3c-1.3,0-2.3-1-2.3-2.3l0-2c0-0.6,0.3-1.2,0.7-1.6
				c0.5-0.4,1-0.6,1.7-0.6h2.2c1.3,0,2.3,1,2.3,2.3v2C48.9,53.1,47.9,54.1,46.6,54.1z M44.4,49.7c-0.1,0-0.2,0.1-0.2,0.2l-1.1,0h1.1
				v2c0,0.1,0.1,0.2,0.2,0.2h2.2c0.1,0,0.2-0.1,0.2-0.2v-2c0-0.1-0.1-0.2-0.2-0.2H44.4C44.4,49.7,44.4,49.7,44.4,49.7z"/>
			<path class="st0" d="M46.6,54.4h-2.3c-1.4,0-2.6-1.2-2.6-2.6l0-2c0-0.7,0.3-1.3,0.8-1.8c0.5-0.5,1.1-0.7,1.8-0.7c0,0,0,0,0,0h2.2
				c1.4,0,2.6,1.2,2.6,2.6v2C49.2,53.2,48,54.4,46.6,54.4z M44.4,47.8c-0.6,0-1.1,0.2-1.5,0.6c-0.4,0.4-0.6,0.9-0.6,1.4l0,2
				c0,1.1,0.9,2.1,2.1,2.1h2.3c1.1,0,2-0.9,2.1-2.1v-1.9c0-1.1-0.9-2.1-2.1-2.1H44.4C44.4,47.8,44.4,47.8,44.4,47.8z M46.6,52.2
				C46.6,52.2,46.6,52.2,46.6,52.2h-2.2c-0.2,0-0.4-0.2-0.4-0.4v-1.7h-0.8l0-0.5l0.9,0c0.1-0.1,0.2-0.2,0.4-0.2h2.2
				c0.2,0,0.4,0.2,0.4,0.4v2c0,0.1,0,0.2-0.1,0.3C46.8,52.2,46.7,52.2,46.6,52.2z M46.6,51.7L46.6,51.7L46.6,51.7L46.6,51.7z
				 M44.4,51.7h2.2v-1.8h-2.2V51.7z M44.4,49.8L44.4,49.8L44.4,49.8z"/>
		</g>
		<g>
			<path class="st0" d="M54.9,62H36c-1.3,0-2.3-1-2.3-2.3v-8.8h2.1v8.8c0,0.1,0.1,0.2,0.2,0.2h18.9c0.1,0,0.2-0.1,0.2-0.2v-9h2.1v9
				C57.3,61,56.2,62,54.9,62z"/>
			<path class="st0" d="M54.9,62.3H36c-1.4,0-2.6-1.2-2.6-2.6v-9.1h2.6v9h18.8v-9.1h2.6v9.2C57.5,61.1,56.4,62.3,54.9,62.3z
				 M34,51.1v8.6c0,1.1,0.9,2.1,2.1,2.1h18.9c1.1,0,2.1-0.9,2.1-2.1V51h-1.6v8.7c0,0.2-0.2,0.4-0.4,0.4H36c-0.2,0-0.4-0.2-0.4-0.4
				v-8.6H34z"/>
		</g>
		<g>
			<polygon class="st0" points="25.7,37.8 20.7,37.8 19.4,35.1 21.3,34.1 22,35.6 24.6,35.6 25.8,33.9 27.5,35 			"/>
			<path class="st0" d="M25.9,38h-5.3L19,35l2.4-1.2l0.8,1.6h2.3l1.3-1.9l2.2,1.5L25.9,38z M20.9,37.5h4.7l1.6-2.4l-1.4-0.9
				l-1.1,1.7h-2.8l-0.7-1.4l-1.5,0.7L20.9,37.5z"/>
		</g>
		<g>
			<path class="st0" d="M23.2,60.4c-0.1,0-0.1,0-0.2,0c-0.6-0.1-1.2-0.3-1.6-0.8l-3.9-4.6l3-18.5l2.1,0.3l-2.9,17.5l3.3,3.9
				c0,0,0.1,0.1,0.1,0.1c0,0,0.1,0,0.1,0l3.9-3.9l-3.1-17.4l2.1-0.4l3.3,18.5l-4.8,4.8C24.3,60.2,23.7,60.4,23.2,60.4z"/>
			<path class="st0" d="M23.2,60.6c-0.1,0-0.1,0-0.2,0c-0.7-0.1-1.3-0.4-1.7-0.9l-4-4.7l3.1-18.8l2.6,0.4L20,54.2l3.1,3.8l3.7-3.7
				l-3.1-17.5l2.6-0.5l3.4,18.9L24.9,60C24.4,60.4,23.8,60.6,23.2,60.6z M17.8,54.8l3.8,4.6c0.4,0.4,0.9,0.7,1.4,0.7
				c0.1,0,0.1,0,0.2,0c0.5,0,1-0.2,1.3-0.5l4.7-4.7L26,36.8l-1.6,0.3l3.1,17.3l-4,4c-0.1,0.1-0.2,0.1-0.3,0.1
				c-0.1,0-0.2-0.1-0.3-0.2l-3.3-4L22.4,37l-1.6-0.3L17.8,54.8z"/>
		</g>
	</g>
</g>
</svg>
