<svg  xmlns="http://www.w3.org/2000/svg" width="50" height="45" viewBox="0 0 67.582 57.762">
  <g id="ÖG_alt_sistem_ikon" data-name="ÖG alt sistem ikon" transform="translate(-308.292 -335.91)">
    <path id="Path_1" data-name="Path 1" d="M343.752,369.623a13.44,13.44,0,0,1-2.2-.335,4.2,4.2,0,0,1-2.183-1.725c-1.092-1.62-2.236-3.187-3.5-4.754v17.764c0,3.609.018,7.218.018,10.827v.458c-.018,1.356-.475,1.813-1.831,1.813H321.322c-1.532,0-1.954-.44-1.954-1.972V362.81a.858.858,0,0,0-.123-.053c-.915,1.3-1.813,2.623-2.729,3.908a11.547,11.547,0,0,1-1.479,1.849,3.8,3.8,0,0,1-3.926.81,3.835,3.835,0,0,1-2.676-2.834,4.253,4.253,0,0,1,.7-3.627q4.489-6.391,8.944-12.817c.986-1.426,2.113-2.588,4.049-2.729a7.141,7.141,0,0,1-1.268-6.285,7.034,7.034,0,0,1,10.915-3.785,7.127,7.127,0,0,1,2.835,4.736,7.033,7.033,0,0,1-1.373,5.211,7.573,7.573,0,0,1,2.06.88,18.26,18.26,0,0,1,2.254,2.535c.546.687,1.021,1.426,1.514,2.148a1.33,1.33,0,1,1-2.13,1.567c-.775-1.074-1.532-2.148-2.271-3.239a2.334,2.334,0,0,0-2.148-1.127q-4.886.053-9.771,0a2.3,2.3,0,0,0-2.1,1.074c-2.975,4.3-6,8.574-9.014,12.852-.106.158-.229.317-.334.493a1.471,1.471,0,1,0,2.394,1.655c.968-1.373,1.919-2.729,2.87-4.1s1.9-2.746,2.87-4.12a1.429,1.429,0,0,1,1.69-.7c.634.211.915.669.915,1.514,0,4.789.018,9.6.018,14.384,0,5.845-.018,11.708-.018,17.553,0,.106.018.211.035.387h4.278v-4.331c0-4.137-.018-8.275-.018-12.412,0-.968.458-1.514,1.25-1.549.863-.018,1.408.546,1.426,1.532.018,1.6.018,3.2.018,4.824v11.937h4.225V359.183a5.957,5.957,0,0,1,.018-.792,1.339,1.339,0,0,1,2.482-.722c1.18,1.69,2.377,3.38,3.556,5.07.792,1.127,1.585,2.271,2.394,3.4a1.373,1.373,0,0,0,1.637.651,1.443,1.443,0,0,0,.739-2.289c-.88-1.268-1.761-2.518-2.641-3.785a1.328,1.328,0,0,1,.141-1.989,1.263,1.263,0,0,1,1.937.37c1.056,1.461,2.077,2.94,3.063,4.454a6.45,6.45,0,0,1,.511,1.373c2.412.458,4.489,1.813,6.849,2.658a3.9,3.9,0,0,1,3.116-3.1,6.026,6.026,0,0,1,1.408-8.028,5.951,5.951,0,0,1,8.574,7.993,6.212,6.212,0,0,1,1.338.616,6.133,6.133,0,0,1,1.444,1.5c1.813,2.835,3.574,5.7,5.37,8.539a3.654,3.654,0,0,1-.88,5.141,3.6,3.6,0,0,1-5.035-1.021c-.053-.07-.088-.123-.246-.352V391.93c0,1.144-.475,1.708-1.6,1.708-3.609.035-7.218.018-10.827,0-1.109,0-1.567-.563-1.567-1.761,0-4.824-.018-9.63,0-14.454a.865.865,0,0,0-.528-.916c-2.94-1.532-5.863-3.116-8.8-4.648A3.634,3.634,0,0,1,343.752,369.623ZM366.3,390.979a2.032,2.032,0,0,0,.035-.282V373.866a1.272,1.272,0,0,1,1.074-1.426,1.352,1.352,0,0,1,1.5.827c.792,1.391,1.585,2.8,2.359,4.19.4.722.951.968,1.479.616.493-.317.546-.915.141-1.549-.247-.37-.475-.739-.7-1.109-1.585-2.518-3.151-5.018-4.736-7.535a1.209,1.209,0,0,0-1.092-.722c-2.887.018-5.757,0-8.644,0a1.1,1.1,0,0,0-1.109.775c-.194.493-.387.986-.6,1.461-.563,1.373-1.144,1.6-2.518,1-1.9-.845-3.82-1.69-5.722-2.518-.651-.282-1.144-.158-1.408.37-.264.511-.035.968.6,1.32,1.373.739,2.746,1.479,4.12,2.2,1.268.669,2.553,1.32,3.838,1.989a3.87,3.87,0,0,1,.334-.757,1.246,1.246,0,0,1,1.444-.511,1.262,1.262,0,0,1,.933,1.285V391h3.011v-8.75a1.338,1.338,0,0,1,1.32-1.5c.827,0,1.3.528,1.32,1.461v8.8C364.35,390.979,365.3,390.979,366.3,390.979Zm-43.028-48.028a4.31,4.31,0,0,0,4.278,4.349,4.376,4.376,0,1,0-4.278-4.349Zm38.75,14.965a3.276,3.276,0,0,0-3.31,3.222,3.292,3.292,0,1,0,6.585.035A3.311,3.311,0,0,0,362.026,357.915Z" transform="translate(0 0)" fill="#89a3ff"/>
    <path id="Path_2" data-name="Path 2" d="M483.246,448.548a1.279,1.279,0,1,1-2.553.053,1.285,1.285,0,0,1,1.285-1.3A1.2,1.2,0,0,1,483.246,448.548Z" transform="translate(-142.047 -91.777)" fill="#89a3ff"/>
  </g>
</svg>
