<?xml version="1.0" encoding="UTF-8"?>
<svg width="42px" height="46px" viewBox="0 0 42 46" version="1.1" xmlns="http://www.w3.org/2000/svg" xmlns:xlink="http://www.w3.org/1999/xlink">
    <!-- Generator: Sketch 52 (66869) - http://www.bohemiancoding.com/sketch -->
    <title>Group 16</title>
    <desc>Created with Sketch.</desc>
    <g id="Page-1" stroke="none" stroke-width="1" fill="none" fill-rule="evenodd" opacity="0.574051339">
        <g id="Desktop-HD" transform="translate(-1086.000000, -774.000000)" fill="#325FFF" fill-rule="nonzero">
            <g id="Group-16" transform="translate(1086.000000, 774.000000)">
                <path d="M39.7660772,41.5768211 L25.3950576,41.5768211 C25.7247822,41.0323691 25.9150114,40.3958274 25.9150114,39.7162506 L25.9150114,33.7739965 L26.0444326,33.4286378 L26.0666684,33.5420204 C26.0855461,33.6384226 26.120488,33.7310513 26.170042,33.8160433 L29.2515559,39.0997439 C30.2625117,40.833096 32.5095037,41.4290285 34.260502,40.4283507 C35.1087283,39.9436446 35.715447,39.1608376 35.9689348,38.2242183 C36.2224225,37.2876889 36.0923659,36.3094721 35.6026346,35.4698838 L32.601351,30.3237337 L31.7715486,25.4952705 L31.7715486,13.0375605 C31.7715486,11.4014191 30.8391894,9.98126176 29.4468675,9.29117326 C30.1232886,8.3125072 30.4949435,7.14669698 30.4949435,5.93955871 C30.494762,2.66449089 27.8032362,0 24.494736,0 C21.1864174,0 18.4947101,2.66449089 18.4947101,5.93955871 C18.4947101,7.99526954 19.5416062,9.85188701 21.2381496,10.9302794 L17.1288896,15.8209144 L12.80181,18.8479241 C12.1907349,19.2754897 11.7844103,19.9129299 11.6576211,20.6429987 C11.5711285,21.1411814 11.6221346,21.6417898 11.8003838,22.101699 L8.93614511,20.6839674 L8.93614511,19.4615557 C8.93614511,19.0807088 8.69000882,18.7427173 8.32507001,18.6223269 L2.96334664,16.8531272 C2.69089047,16.7634634 2.39120683,16.8085648 2.15832123,16.9747754 C1.92525412,17.1410759 1.78721087,17.4080012 1.78721087,17.6923561 L1.78721087,21.2308453 C1.78721087,21.6116922 2.03334716,21.9496837 2.39828597,22.0700741 L2.64142724,22.1503044 L1.82206203,41.6152742 C0.786329219,41.8073598 0,42.708401 0,43.7885004 C0,45.0079473 1.00215227,46 2.23401359,46 L39.7659864,46 C40.9978477,46 42,45.0079473 42,43.7885004 C42.0001815,42.5689637 40.9979385,41.5768211 39.7660772,41.5768211 Z M13.4191474,20.9426271 C13.4650711,20.6783971 13.6121901,20.4474991 13.8333679,20.2927885 L18.0796728,17.3222904 C18.1989291,17.2676655 18.3057515,17.1870758 18.3914272,17.0851033 L23.0310782,11.5629579 C23.0575796,11.5313329 23.0819028,11.4979111 23.1037755,11.4628721 C23.1541464,11.3822825 23.2152266,11.3015131 23.2851105,11.2227203 C23.287924,11.2196656 23.2900114,11.2160718 23.2928249,11.2130172 C23.6350742,10.8331585 24.124624,10.6152879 24.6383155,10.6152879 C25.1318587,10.6152879 25.531921,10.2191675 25.531921,9.73068803 C25.531921,9.24220851 25.1318587,8.84608819 24.6383155,8.84608819 C23.8402785,8.84608819 23.0721917,9.11040799 22.449318,9.58496175 C21.1171689,8.85633036 20.281921,7.47759086 20.281921,5.93946887 C20.281921,3.64001242 22.1717794,1.76910983 24.494736,1.76910983 C26.8176927,1.76910983 28.7075511,3.63992258 28.7075511,5.93946887 C28.7075511,7.14184543 28.181698,8.28645257 27.2647677,9.07977133 C26.9958511,9.31246619 26.8927497,9.68127406 27.0024764,10.0177382 C27.1122938,10.3542024 27.4138834,10.5936356 27.7694741,10.6266082 C29.0321025,10.743854 29.9841562,11.7801996 29.9841562,13.0375605 L29.9841562,25.5700204 C29.9841562,25.6197937 29.9883311,25.6693874 29.9968624,25.7183521 L30.8661446,30.7769946 C30.8839332,30.8804944 30.9202365,30.9801309 30.9732393,31.0709628 L34.0547531,36.3545735 C34.3057904,36.7849242 34.3724069,37.2863412 34.2425319,37.7663755 C34.1125661,38.2464995 33.8015377,38.6477409 33.3668058,38.8961584 C32.469207,39.4089855 31.3174852,39.1036072 30.7993465,38.2151441 L27.792799,33.0600096 L27.2401722,30.2366753 L28.5103335,26.8457093 C28.6819573,26.3876867 28.4458951,25.8785432 27.9832097,25.7087389 C27.5205243,25.5392939 27.0061975,25.7725278 26.8346645,26.2305503 L25.4773753,29.8540315 L24.1836168,33.3077982 C24.1466782,33.4061769 24.1278913,33.5103955 24.1278913,33.6153328 L24.1278913,39.7162506 C24.1278913,40.7422642 23.2847474,41.5768211 22.2483793,41.5768211 C21.2119204,41.5768211 20.3688673,40.7420845 20.3688673,39.7162506 L20.3688673,33.7636645 L22.7864848,26.8265726 C22.8187947,26.7336743 22.8354035,26.6362839 22.8354035,26.537995 L22.8354035,17.7027779 L24.8110284,15.3514817 C25.1266855,14.9758458 25.0749533,14.4180968 24.6954932,14.1057107 C24.3160331,13.7933246 23.7526061,13.8443558 23.4370397,14.2201714 L21.2548491,16.8172797 L19.9891349,18.3236869 L19.3373094,18.9012912 L15.0041489,21.9325236 C14.8358832,22.0503983 14.6434758,22.1096053 14.4514314,22.1153552 L14.4162172,22.1153552 C14.0992895,22.1140076 13.7872627,21.9672032 13.5906804,21.6920123 C13.4341225,21.4730635 13.3732237,21.206857 13.4191474,20.9426271 Z M8.04253967,23.8845549 C8.2277772,23.8845549 8.41110881,23.8275042 8.56512551,23.7175357 C8.79810186,23.5512353 8.93623587,23.28431 8.93623587,22.9999551 L8.93623587,22.6620534 L11.2174437,23.7912074 C11.341601,23.8525706 11.4783736,23.8846448 11.6170522,23.8846448 L18.7659864,23.8846448 C19.2595296,23.8846448 19.6595918,23.4885244 19.6595918,23.0000449 C19.6595918,22.5115654 19.2595296,22.1154451 18.7659864,22.1154451 L17.8392542,22.1154451 L20.4101623,20.3169564 C20.4381159,20.2972807 20.4649803,20.2762573 20.4903926,20.2536167 L21.0477388,19.7597466 L21.0477388,26.389843 L18.6301214,33.3269349 C18.5978114,33.4198332 18.5812027,33.5172236 18.5812027,33.6155125 L18.5812027,39.7164302 C18.5812027,40.3961867 18.7713411,41.0325488 19.1011565,41.5770008 L6.2933565,41.5770008 L7.04982626,23.6050516 L7.76010009,23.8393636 C7.85231044,23.8696409 7.94769733,23.8845549 8.04253967,23.8845549 Z M3.5745125,18.9196193 L7.149025,20.0991756 L7.149025,21.7726919 L6.48921274,21.5550009 L6.48912198,21.5550009 L6.13616326,21.4385636 L3.5745125,20.5931356 L3.5745125,18.9196193 Z M5.28548646,23.0226855 L4.50451198,41.5768211 L3.61244943,41.5768211 L4.40558552,22.7323111 L5.28548646,23.0226855 Z M39.7660772,44.2307105 L2.23410435,44.2307105 C1.98769578,44.2307105 1.78730163,44.0323359 1.78730163,43.7884106 C1.78730163,43.5444853 1.98769578,43.3461107 2.23410435,43.3461107 L39.7660772,43.3461107 C40.0124857,43.3461107 40.2128799,43.5444853 40.2128799,43.7884106 C40.2128799,44.032246 40.0124857,44.2307105 39.7660772,44.2307105 Z" id="Shape"></path>
            </g>
        </g>
    </g>
</svg>