<?xml version="1.0" encoding="UTF-8"?>
<svg width="47px" height="36px" viewBox="0 0 47 36" version="1.1" xmlns="http://www.w3.org/2000/svg" xmlns:xlink="http://www.w3.org/1999/xlink">
    <!-- Generator: Sketch 52 (66869) - http://www.bohemiancoding.com/sketch -->
    <title>Group 9</title>
    <desc>Created with Sketch.</desc>
    <g id="Page-1" stroke="none" stroke-width="1" fill="none" fill-rule="evenodd" opacity="0.574051339">
        <g id="Desktop-HD" transform="translate(-204.000000, -909.000000)" fill="#325FFF" fill-rule="nonzero">
            <g id="Group-9" transform="translate(204.000000, 909.000000)">
                <path d="M44.363,13.257 L43.358,12.193 L39.83,2.681 C39.225441,1.07471267 37.6922703,0.00817647408 35.976,0 L10.776,0 C9.05846381,0.00416524664 7.52323848,1.07213076 6.922,2.681 L3.44,12.074 L1.991,13.414 C0.728606856,14.4892373 0.000921607493,16.0637567 0,17.722 L0,31.58 C0.0110078907,33.8475988 1.85237449,35.6800267 4.12,35.68 L6.72,35.68 C8.98762551,35.6800267 10.8289921,33.8475988 10.84,31.58 L10.84,29.569 L35.286,29.569 L35.286,31.58 C35.2970079,33.8475988 37.1383745,35.6800267 39.406,35.68 L42.006,35.68 C44.2736255,35.6800267 46.1149921,33.8475988 46.126,31.58 L46.126,17.357 C46.1183086,15.8078737 45.4820644,14.328236 44.363,13.257 Z M8.772,3.351 C9.08564442,2.51892819 9.88278016,1.96890454 10.772,1.971 L35.986,1.971 C36.8739696,1.97291851 37.6690467,2.52152166 37.986,3.351 L41.061,11.63 L38.761,11.63 C38.2713822,8.31387249 35.425578,5.8573924 32.0735,5.8573924 C28.721422,5.8573924 25.8756178,8.31387249 25.386,11.63 L5.7,11.63 L8.772,3.351 Z M36.754,11.63 L27.381,11.63 C27.8451842,9.41166157 29.8011169,7.82264354 32.0675,7.82264354 C34.3338831,7.82264354 36.2898158,9.41166157 36.754,11.63 Z M8.871,31.58 C8.86329298,32.7604192 7.90243965,33.7123302 6.722,33.709 L4.12,33.709 C2.93956035,33.7123302 1.97870702,32.7604192 1.971,31.58 L1.971,29 C2.61886678,29.3899614 3.36400013,29.5882938 4.12,29.572 L8.871,29.572 L8.871,31.58 Z M44.157,31.58 C44.149293,32.7604192 43.1884396,33.7123302 42.008,33.709 L39.408,33.709 C38.2291304,33.7085079 37.2705144,32.7588134 37.259,31.58 L37.259,29.569 L42.01,29.569 C42.7646934,29.5856286 43.5086878,29.3883626 44.156,29 L44.156,31.58 L44.157,31.58 Z M42.008,27.6 L4.12,27.6 C3.55511002,27.6061294 3.01100775,27.3871804 2.60781192,26.9914894 C2.20461609,26.5957984 1.97548401,26.0559054 1.971,25.491 L1.971,17.722 C1.9719891,16.6343673 2.45147017,15.6022578 3.282,14.9 L3.321,14.861 L4.662,13.6 L41.988,13.6 L42.934,14.615 C42.944,14.635 42.973,14.645 42.983,14.664 C43.7231577,15.3636518 44.143605,16.336501 44.146,17.355 L44.146,25.486 L44.156,25.486 C44.1455494,26.6624688 43.1844858,27.6083201 42.008,27.6 Z" id="Path_3"></path>
                <path d="M13.01,17.544 L5.618,17.544 C5.07413102,17.5456473 4.63364727,17.986131 4.632,18.53 L4.632,23.655 C4.63364727,24.198869 5.07413102,24.6393527 5.618,24.641 L13.01,24.641 C13.553869,24.6393527 13.9943527,24.198869 13.996,23.655 L13.996,18.53 C13.9943527,17.986131 13.553869,17.5456473 13.01,17.544 Z M12.024,22.669 L6.603,22.669 L6.603,19.515 L12.024,19.515 L12.024,22.669 Z" id="Path_4"></path>
                <path d="M40.51,17.544 L33.118,17.544 C32.574131,17.5456473 32.1336473,17.986131 32.132,18.53 L32.132,23.655 C32.1336473,24.198869 32.574131,24.6393527 33.118,24.641 L40.51,24.641 C41.053869,24.6393527 41.4943527,24.198869 41.496,23.655 L41.496,18.53 C41.4943527,17.986131 41.053869,17.5456473 40.51,17.544 Z M39.524,22.669 L34.103,22.669 L34.103,19.515 L39.524,19.515 L39.524,22.669 Z" id="Path_5"></path>
                <path d="M27.825,21.684 L18.304,21.684 C17.7719404,21.7009507 17.3493967,22.1371704 17.3493967,22.6695 C17.3493967,23.2018296 17.7719404,23.6380493 18.304,23.655 L27.825,23.655 C28.1845714,23.6664554 28.5218419,23.4811659 28.705016,23.171537 C28.8881902,22.8619082 28.8881902,22.4770918 28.705016,22.167463 C28.5218419,21.8578341 28.1845714,21.6725446 27.825,21.684 Z" id="Path_6"></path>
                <path d="M27.825,18.629 L18.304,18.629 C17.7719404,18.6459507 17.3493967,19.0821704 17.3493967,19.6145 C17.3493967,20.1468296 17.7719404,20.5830493 18.304,20.6 L27.825,20.6 C28.3570596,20.5830493 28.7796033,20.1468296 28.7796033,19.6145 C28.7796033,19.0821704 28.3570596,18.6459507 27.825,18.629 Z" id="Path_7"></path>
            </g>
        </g>
    </g>
</svg>