<?xml version="1.0" encoding="UTF-8"?>
<svg width="51px" height="47px" viewBox="0 0 51 47" version="1.1" xmlns="http://www.w3.org/2000/svg" xmlns:xlink="http://www.w3.org/1999/xlink">
    <!-- Generator: Sketch 52 (66869) - http://www.bohemiancoding.com/sketch -->
    <title>Group 15</title>
    <desc>Created with Sketch.</desc>
    <g id="Page-1" stroke="none" stroke-width="1" fill="none" fill-rule="evenodd" opacity="0.574051339">
        <g id="Desktop-HD" transform="translate(-860.000000, -773.000000)" fill="#325FFF" fill-rule="nonzero">
            <g id="Group-15" transform="translate(860.000000, 773.000000)">
                <path d="M47.6132812,22.9920914 L47.6132812,22.4862973 C47.6132812,17.3610741 45.762041,12.3793406 42.4007227,8.45882335 C39.0798457,4.58567834 34.4815781,1.95853064 29.4527988,1.06120464 C28.9110234,0.964694775 28.3930547,1.31846621 28.2950391,1.85142823 C28.1970234,2.38448832 28.5562148,2.89479406 29.0975918,2.99140201 C38.6719453,4.69974437 45.6210937,12.8984735 45.6210937,22.4862973 L45.6210937,22.7813193 L43.6289062,22.7813193 L43.6289062,22.4862973 C43.6289062,12.6435658 35.4962988,4.63589485 25.5,4.63589485 C15.5037012,4.63589485 7.37109375,12.6435658 7.37109375,22.4862973 L7.37109375,22.7805347 L5.37890625,22.7805347 L5.37890625,22.4862973 C5.37890625,12.774011 12.4333418,4.55703923 22.1529258,2.94834527 C22.6953984,2.85850478 23.0612637,2.35271068 22.9700215,1.81847364 C22.8787793,1.28433467 22.3660898,0.923599618 21.8225215,1.01383242 C16.730291,1.8567245 12.0649863,4.46494292 8.68603711,8.35809608 C5.26883789,12.295581 3.38671875,17.3131134 3.38671875,22.4862973 L3.38671875,22.9913068 C1.42730273,23.5888049 0,25.3896358 0,27.5126568 L0,34.1333907 C0,36.742688 2.15594531,38.8655128 4.80595312,38.8655128 L7.60228711,38.8655128 C8.12633203,39.7174281 9.07680469,40.2880525 10.1600566,40.2880525 C11.8077949,40.2880525 13.1483379,38.9681035 13.1483379,37.3456785 L13.1483379,24.3011536 C13.1483379,22.6787286 11.8077949,21.3587796 10.1600566,21.3587796 C9.89668945,21.3587796 9.64139062,21.392813 9.39804492,21.4560741 C9.93922266,13.1733893 16.9537148,6.59747754 25.5,6.59747754 C34.0462852,6.59747754 41.0607773,13.1733893 41.6018555,21.4560741 C41.3584102,21.392813 41.1031113,21.3587796 40.8398437,21.3587796 C39.1921055,21.3587796 37.8515625,22.6787286 37.8515625,24.3011536 L37.8515625,26.7496992 C37.8515625,27.2912922 38.2976133,27.7304905 38.8476562,27.7304905 C39.3976992,27.7304905 39.84375,27.2912922 39.84375,26.7496992 L39.84375,24.3011536 C39.84375,23.7603453 40.2905977,23.3203623 40.8398437,23.3203623 C41.3890898,23.3203623 41.8359375,23.7603453 41.8359375,24.3011536 L41.8359375,37.0020092 L41.8359375,37.3456785 C41.8359375,37.8864868 41.3890898,38.3264698 40.8398437,38.3264698 C40.2905977,38.3264698 39.84375,37.8864868 39.84375,37.3456785 L39.84375,35.0864256 C39.84375,34.5448326 39.3976992,34.1056343 38.8476562,34.1056343 C38.2976133,34.1056343 37.8515625,34.5448326 37.8515625,35.0864256 L37.8515625,37.3456785 C37.8515625,38.9681035 39.1921055,40.2880525 40.8398437,40.2880525 C41.1890742,40.2880525 41.5241602,40.2282242 41.8359375,40.1193564 L41.8359375,40.7586362 C41.8359375,41.820539 40.9584785,42.6845181 39.8800078,42.6845181 L30.7418437,42.6845181 C30.3155156,41.3228855 29.0257734,40.3306189 27.5048379,40.3306189 L23.5204629,40.3306189 C21.6529863,40.3306189 20.1337441,41.8265218 20.1337441,43.6653094 C20.1337441,45.504097 21.6529863,47 23.5204629,47 L27.5048379,47 C29.0257734,47 30.3155156,46.0077334 30.7418437,44.6461008 L39.8800078,44.6461008 C42.0569707,44.6461008 43.828125,42.9022538 43.828125,40.7586362 L43.828125,38.8662974 L46.1940469,38.8662974 C48.8440547,38.8662974 51,36.7434726 51,34.1341753 L51,27.5134414 C51,25.3904205 49.5726973,23.5895895 47.6132812,22.9920914 Z M7.171875,36.9039301 L4.80595313,36.9039301 C3.2544375,36.9039301 1.9921875,35.6610713 1.9921875,34.1333907 L1.9921875,27.5126568 C1.9921875,25.9849762 3.2544375,24.7421174 4.80595313,24.7421174 L7.171875,24.7421174 L7.171875,36.9039301 Z M10.1601563,23.3203623 C10.7094023,23.3203623 11.15625,23.7603453 11.15625,24.3011536 L11.15625,37.3456785 C11.15625,37.8864868 10.7094023,38.3264698 10.1601563,38.3264698 C9.61091016,38.3264698 9.1640625,37.8864868 9.1640625,37.3456785 L9.1640625,24.3011536 C9.1640625,23.7603453 9.61091016,23.3203623 10.1601563,23.3203623 Z M27.5048379,45.0384173 L23.5204629,45.0384173 C22.7514785,45.0384173 22.1259316,44.4224803 22.1259316,43.6653094 C22.1259316,42.9081385 22.7514785,42.2922015 23.5204629,42.2922015 L27.5048379,42.2922015 C28.2738223,42.2922015 28.8993691,42.9081385 28.8993691,43.6653094 C28.8993691,44.4224803 28.2738223,45.0384173 27.5048379,45.0384173 Z M49.0078125,34.1341753 C49.0078125,35.6618559 47.7455625,36.9047147 46.1940469,36.9047147 L43.828125,36.9047147 L43.828125,24.742902 L46.1940469,24.742902 C47.7455625,24.742902 49.0078125,25.9857608 49.0078125,27.5134414 L49.0078125,34.1341753 Z" id="Shape"></path>
                <path d="M25.0433873,9.99950003e-05 L24.9599662,0 C24.4298729,0 24,0.447677616 24,0.999950002 C24,1.55222239 24.4298729,1.9999 24.9599662,1.9999 L25.0366675,2 C25.0378195,2 25.0388754,2 25.0401234,2 C25.5686808,2 25.9980736,1.55462227 25.9999936,1.00354982 C26.0019135,0.451277436 25.5735766,0.0019999 25.0433873,9.99950003e-05 Z" id="Shape"></path>
                <path d="M39.7069,30.293 C39.521,30.107 39.263,30 39,30 C38.737,30 38.479,30.1069 38.293,30.293 C38.107,30.4791 38,30.737 38,31 C38,31.263 38.1069,31.521 38.293,31.7069 C38.479,31.893 38.737,32 39,32 C39.263,32 39.521,31.893 39.7069,31.7069 C39.8929,31.521 40,31.263 40,31 C40,30.737 39.893,30.479 39.7069,30.293 Z" id="Shape"></path>
                <path d="M31.3717212,17 L19.6282788,17 C17.076274,17 15,19.0326056 15,21.5309363 L15,27.3130642 C15,29.8113949 17.0761731,31.8440994 19.6282788,31.8440994 L22.4239038,31.8440994 L24.7041202,34.6297525 C24.8940288,34.8617255 25.1805577,34.9977267 25.48425,35 C25.486774,35 25.4895,35 25.492024,35 C25.7927885,35 26.0781058,34.8686442 26.2699327,34.641613 L28.6337452,31.8440994 L31.3717212,31.8440994 C33.923726,31.8440994 36,29.8114938 36,27.3130642 L36,21.5309363 C36,19.0326056 33.9238269,17 31.3717212,17 Z M33.9807692,27.3130642 C33.9807692,28.7215072 32.8103221,29.8673373 31.3717212,29.8673373 L28.1586202,29.8673373 C27.8577548,29.8673373 27.5724375,29.9986931 27.3807115,30.2257243 L25.5044423,32.4462211 L23.696524,30.2375848 C23.504899,30.0035362 23.2150385,29.8673373 22.9086202,29.8673373 L19.6282788,29.8673373 C18.1896779,29.8673373 17.0192308,28.7215072 17.0192308,27.3130642 L17.0192308,21.5309363 C17.0192308,20.1224934 18.1896779,18.9767621 19.6282788,18.9767621 L31.3717212,18.9767621 C32.8103221,18.9767621 33.9807692,20.1225922 33.9807692,21.5309363 L33.9807692,27.3130642 Z" id="Shape"></path>
                <path d="M21.707,24.293 C21.52,24.1069 21.263,24 21,24 C20.737,24 20.479,24.1069 20.293,24.293 C20.106,24.479 20,24.737 20,25 C20,25.263 20.106,25.521 20.293,25.7069 C20.479,25.8929 20.737,26 21,26 C21.263,26 21.52,25.893 21.707,25.7069 C21.8929,25.521 22,25.263 22,25 C22,24.737 21.893,24.479 21.707,24.293 Z" id="Shape"></path>
                <path d="M25.707,24.293 C25.521,24.107 25.263,24 25,24 C24.736,24 24.479,24.1069 24.293,24.293 C24.106,24.479 24,24.737 24,25 C24,25.263 24.106,25.521 24.293,25.7069 C24.479,25.893 24.736,26 25,26 C25.263,26 25.521,25.893 25.707,25.7069 C25.8929,25.521 26,25.263 26,25 C26,24.737 25.893,24.479 25.707,24.293 Z" id="Shape"></path>
                <path d="M30.707,24.293 C30.52,24.107 30.263,24 30,24 C29.736,24 29.479,24.1069 29.293,24.293 C29.106,24.479 29,24.737 29,25 C29,25.264 29.106,25.521 29.293,25.7069 C29.479,25.893 29.736,26 30,26 C30.263,26 30.52,25.893 30.707,25.7069 C30.8929,25.521 31,25.263 31,25 C31,24.737 30.893,24.479 30.707,24.293 Z" id="Shape"></path>
            </g>
        </g>
    </g>
</svg>