<?xml version="1.0" encoding="UTF-8"?>
<svg width="35px" height="42px" viewBox="0 0 35 42" version="1.1" xmlns="http://www.w3.org/2000/svg" xmlns:xlink="http://www.w3.org/1999/xlink">
    <!-- Generator: Sketch 52 (66869) - http://www.bohemiancoding.com/sketch -->
    <title>Group 3</title>
    <desc>Created with Sketch.</desc>
    <g id="Page-1" stroke="none" stroke-width="1" fill="none" fill-rule="evenodd" opacity="0.574051339">
        <g id="Desktop-HD" transform="translate(-1089.000000, -647.000000)" fill="#325FFF" fill-rule="nonzero">
            <g id="Group-3" transform="translate(1089.000000, 646.000000)">
                <path d="M34.111,35.566 L29.111,26.619 C29.076,26.549 29.076,26.519 29.041,26.479 C29.006,26.439 29.006,26.409 28.971,26.379 L28.871,26.169 C28.871,26.134 28.836,26.134 28.836,26.099 L28.801,26.064 C28.801,26.029 28.766,26.029 28.766,25.994 C28.6826777,25.8805113 28.5889372,25.7750532 28.486,25.679 C28.451,25.609 28.386,25.579 28.311,25.504 L28.101,25.329 C28.031,25.259 27.926,25.229 27.856,25.154 L27.681,25.119 C27.3946529,24.9632272 27.0890199,24.845883 26.772,24.77 L16.846,22.778 L16.846,21.481 L22.718,21.481 C23.6094554,21.4860975 24.4657101,21.1334372 25.095,20.502 C26.0543117,19.5244109 26.3358453,18.0678211 25.8099214,16.8031616 C25.2839975,15.5385022 24.0526267,14.711072 22.683,14.702 L16.846,14.702 L16.846,12.6 C16.8407272,12.0110355 16.6844087,11.4332769 16.392,10.922 C18.421715,9.64502734 19.3617409,7.17925064 18.6972312,4.87516104 C18.0327214,2.57107144 15.9239996,0.984567199 13.526,0.984567199 C11.1280004,0.984567199 9.01927857,2.57107144 8.35476884,4.87516104 C7.69025911,7.17925064 8.63028502,9.64502734 10.66,10.922 C10.3632572,11.4314758 10.2066219,12.0104056 10.206,12.6 L10.206,15.641 C3.58679154,17.3175407 -0.744091234,23.6655792 0.109358092,30.4402625 C0.962807418,37.2149458 6.73279359,42.2905144 13.561,42.273 C18.8542879,42.2427971 23.6507858,39.1488609 25.861,34.339 L28.238,38.568 C28.8175237,39.6493397 29.9471714,40.3218956 31.174,40.316 C31.6994395,40.325264 32.2176465,40.192603 32.674,39.932 C33.7830047,39.378618 34.4774005,38.2392958 34.461,37 C34.4617743,36.5007583 34.3416882,36.0087481 34.111,35.566 Z M13.526,3.447 C15.1434205,3.45682598 16.452174,4.76557951 16.462,6.383 C16.4686625,7.99323055 15.1721902,9.305797 13.562,9.319 C11.9518098,9.305797 10.6553375,7.99323055 10.662,6.383 C10.6448045,5.6116563 10.9386804,4.86583243 11.4774243,4.31354466 C12.0161682,3.7612569 12.7544671,3.44895748 13.526,3.447 Z M13.561,39.865 C8.06895845,39.8779461 3.3931041,35.8726318 2.5625096,30.443746 C1.73191509,25.0148602 4.99631788,19.7947231 10.241,18.165 L10.241,25.465 C10.239948,25.7131324 10.2736075,25.9601925 10.341,26.199 C10.6356395,27.4619851 11.6322037,28.4418036 12.9,28.715 L23.944,30.952 L24.294,31.581 C22.977864,36.4361256 18.591169,39.8218874 13.561,39.865 Z M31.561,37.838 C31.1362577,38.0458467 30.623305,37.8750108 30.408,37.454 L25.515,28.754 L13.386,26.3 C13.0529538,26.2292281 12.7927719,25.9690462 12.722,25.636 L12.722,25.6 C12.7137846,25.5410292 12.7020976,25.4825944 12.687,25.425 L12.687,12.6 C12.6929268,12.1391104 13.0651104,11.7669268 13.526,11.761 C13.7471652,11.7679032 13.9582776,11.8549782 14.12,12.006 C14.2791698,12.1623607 14.3676554,12.3768932 14.365,12.6 L14.365,17.144 L22.718,17.144 C22.9686906,17.1429309 23.2094223,17.2420445 23.3866889,17.4193111 C23.5639555,17.5965777 23.6630691,17.8373094 23.662,18.088 C23.6560571,18.6068752 23.2368752,19.0260571 22.718,19.032 L14.4,19.032 L14.4,24.764 L26.283,27.141 C26.318,27.141 26.383,27.176 26.423,27.176 L26.523,27.246 C26.5606058,27.2484336 26.5905664,27.2783942 26.593,27.316 L26.693,27.386 L26.763,27.456 L31.901,36.648 C31.9706745,36.763675 32.0054034,36.8970339 32.001,37.032 C32.015743,37.3616047 31.8457063,37.6719892 31.56,37.837 L31.561,37.838 Z" id="Path_8"></path>
            </g>
        </g>
    </g>
</svg>