<?xml version="1.0" encoding="UTF-8"?>
<svg width="33px" height="47px" viewBox="0 0 33 47" version="1.1" xmlns="http://www.w3.org/2000/svg" xmlns:xlink="http://www.w3.org/1999/xlink">
    <!-- Generator: Sketch 52 (66869) - http://www.bohemiancoding.com/sketch -->
    <title>Group 5</title>
    <desc>Created with Sketch.</desc>
    <g id="Page-1" stroke="none" stroke-width="1" fill="none" fill-rule="evenodd" opacity="0.574051339">
        <g id="Desktop-HD" transform="translate(-649.000000, -644.000000)" fill="#325FFF" fill-rule="nonzero">
            <g id="Group-5" transform="translate(648.000000, 644.000000)">
                <path d="M12.662,9.575 C15.3057871,9.575 17.449,7.4317871 17.449,4.788 C17.449,2.1442129 15.3057871,0.001 12.662,0.001 C10.0182129,0.001 7.875,2.1442129 7.875,4.788 C7.87830578,7.43041659 10.0195834,9.57169422 12.662,9.575 Z M12.662,2.297 C14.0377413,2.297 15.153,3.41225869 15.153,4.788 C15.153,6.16374131 14.0377413,7.279 12.662,7.279 C11.2862587,7.279 10.171,6.16374131 10.171,4.788 C10.1743043,3.4141157 11.2881127,2.30164866 12.662,2.3 L12.662,2.297 Z M11.014,45.61 C11.014,45.62 11.014,45.63 11.014,45.64 C11.0134486,46.2737944 10.4997944,46.7874486 9.866,46.788 L6.766,46.788 C6.13087254,46.788 5.616,46.2731275 5.616,45.638 C5.616,45.0028725 6.13087254,44.488 6.766,44.488 L8.72,44.488 L8.72,34.147 C8.72,33.5118725 9.23487254,32.997 9.87,32.997 C10.5051275,32.997 11.02,33.5118725 11.02,34.147 L11.02,45.61 L11.014,45.61 Z M9.996,19.579 L9.996,28.579 L15.328,28.579 L15.328,19.579 C15.328,18.9438725 15.8428725,18.429 16.478,18.429 C17.1131275,18.429 17.628,18.9438725 17.628,19.579 L17.628,29.73 C17.628,30.3640229 17.1140229,30.878 16.48,30.878 L8.848,30.878 C8.21397711,30.878 7.7,30.3640229 7.7,29.73 L7.7,19.579 C7.7,18.9438725 8.21487254,18.429 8.85,18.429 C9.48512746,18.429 10,18.9438725 10,19.579 L9.996,19.579 Z M32.753,23.148 C32.0282352,22.1782801 30.8577437,21.6467532 29.6506423,21.7392017 C28.4435408,21.8316502 27.367642,22.5352217 26.799,23.604 L23.486,17.813 C21.704,14.698 19.063,11.123 14.418,11.123 L10.904,11.123 C5.992,11.123 4.468,15.114 3.749,18.115 L1.031,29.462 C0.882435433,30.0789021 1.26209796,30.6994354 1.87900001,30.848 C2.49590206,30.9965645 3.11643538,30.616902 3.265,30 L5.982,18.65 C6.616,16 7.524,14.469 8.937,13.809 L11.607,20.031 C11.6669495,20.1712199 11.7543287,20.2980388 11.864,20.404 C11.9446381,20.4816848 12.0362905,20.5470545 12.136,20.598 C12.17,20.615 12.205,20.631 12.236,20.645 C12.3682819,20.6965714 12.5090207,20.7230235 12.651,20.723 C12.806083,20.7228897 12.9595243,20.6912488 13.102,20.63 L13.122,20.63 C13.251729,20.5716486 13.3694146,20.4895739 13.469,20.388 C13.5561036,20.3002443 13.6283776,20.1989256 13.683,20.088 C13.69,20.073 13.697,20.057 13.704,20.042 L16.396,13.766 C18.233,14.423 19.828,16.079 21.48,18.966 L26.1,27 L23.453,45.478 C23.3947657,45.8840323 23.5575707,46.2902893 23.8800879,46.5437379 C24.202605,46.7971864 24.6358364,46.8593217 25.0165879,46.7067379 C25.3973393,46.5541541 25.6677657,46.2100323 25.726,45.804 L28.398,27.147 C28.4364453,27.0261514 28.4546903,26.899788 28.452,26.773 L28.692,25.094 C28.7892021,24.4144136 29.4189136,23.9422979 30.0985,24.0395 C30.7780864,24.1367021 31.2502021,24.7664136 31.153,25.446 C31.0629776,26.0736716 31.4988284,26.6554775 32.1265,26.7454999 C32.7541716,26.8355224 33.3359776,26.3996716 33.426,25.772 C33.5609156,24.8425647 33.3185957,23.8977691 32.753,23.148 Z M12.662,16.667 L11.269,13.419 L14.053,13.419 L12.662,16.667 Z M19.707,45.64 C19.707,46.2740229 19.1930229,46.788 18.559,46.788 L15.453,46.788 C15.1485315,46.788 14.8565332,46.6670503 14.6412414,46.4517586 C14.4259497,46.2364668 14.305,45.9444685 14.305,45.64 L14.305,34.147 C14.305,33.5118725 14.8198725,32.997 15.455,32.997 C16.0901275,32.997 16.605,33.5118725 16.605,34.147 L16.605,44.492 L18.559,44.492 C19.1930229,44.492 19.707,45.0059771 19.707,45.64 Z" id="old-age-man"></path>
            </g>
        </g>
    </g>
</svg>