<?xml version="1.0" encoding="UTF-8"?>
<svg width="44px" height="44px" viewBox="0 0 44 44" version="1.1" xmlns="http://www.w3.org/2000/svg" xmlns:xlink="http://www.w3.org/1999/xlink">
    <!-- Generator: Sketch 52 (66869) - http://www.bohemiancoding.com/sketch -->
    <title>Group 17</title>
    <desc>Created with Sketch.</desc>
    <g id="Page-1" stroke="none" stroke-width="1" fill="none" fill-rule="evenodd" opacity="0.574051339">
        <g id="Desktop-HD" transform="translate(-1085.000000, -904.000000)" fill="#325FFF" fill-rule="nonzero">
            <g id="Group-17" transform="translate(1085.000000, 904.000000)">
                <path d="M26.5,19 C22.3644798,19 19,22.3644797 19,26.5 C19,30.6355203 22.3644798,34 26.5,34 C30.6355203,34 34,30.6355203 34,26.5 C34,22.3644797 30.6355203,19 26.5,19 Z M26.5,32.2954545 C23.3043102,32.2954545 20.7045455,29.6956898 20.7045455,26.5 C20.7045455,23.3043102 23.3043102,20.7045455 26.5,20.7045455 C29.6956898,20.7045455 32.2954545,23.3043102 32.2954545,26.5 C32.2954545,29.6956898 29.6956898,32.2954545 26.5,32.2954545 Z" id="Shape"></path>
                <path d="M43.1476897,39.0253601 L36.3271931,32.2047425 C37.2725353,30.5655518 37.8140258,28.6651917 37.8140258,26.640625 C37.8140258,23.6526184 36.6346979,20.9351807 34.7174928,18.9284057 L34.7174928,9.2802429 C34.7168214,9.2802429 34.7161499,9.2802429 34.7154786,9.2802429 C34.7154786,9.05667116 34.6302097,8.83712766 34.4660505,8.67263796 L26.0449176,0.251770063 C25.8804226,0.0872802734 25.6605366,0.00234985781 25.4369578,0.00234985781 C25.4369578,0.00134277344 25.4369578,0.00100708438 25.4372935,0 L2.57820614,0 C1.1565,0 0,1.1564636 0,2.578125 L0,41.421875 C0,42.8435364 1.1565,44 2.57820614,44 L32.1396223,44 C33.5609928,44 34.7178284,42.8435364 34.7178284,41.421875 L34.7178284,38.8377076 L39.0265883,43.1466674 C39.5945994,43.7146607 40.3408692,43.9986572 41.0874747,43.9986572 C41.8337446,43.9986572 42.5800144,43.7146607 43.1480254,43.1466674 C44.2840475,42.0103454 44.2840475,40.1616822 43.1476897,39.0253601 Z M26.6417991,36.09375 C21.4293243,36.09375 17.1883766,31.8529358 17.1883766,26.640625 C17.1883766,21.4283142 21.4293243,17.1875 26.6417991,17.1875 C31.854274,17.1875 36.0952217,21.4283142 36.0952217,26.640625 C36.0952217,31.8529358 31.854274,36.09375 26.6417991,36.09375 Z M26.2966955,2.93429563 L31.7834405,8.42120366 L27.1560976,8.42120366 C26.6820836,8.42120366 26.2966955,8.03549192 26.2966955,7.56182866 L26.2966955,2.93429563 Z M32.9990243,41.421875 C32.9990243,41.895874 32.6133006,42.28125 32.1396223,42.28125 L2.57820614,42.28125 C2.1041922,42.28125 1.71880409,41.895874 1.71880409,41.421875 L1.71880409,2.578125 C1.71880409,2.10412598 2.1041922,1.71875 2.57820614,1.71875 L24.5778914,1.71875 L24.5778914,7.5614929 C24.5778914,8.9831543 25.7343914,10.1396179 27.1560976,10.1396179 L32.9986887,10.1396179 L32.9986887,17.4590759 C31.193273,16.2049255 29.0021335,15.46875 26.6417991,15.46875 C20.4812964,15.46875 15.4695725,20.4803161 15.4695725,26.640625 C15.4695725,27.8434143 15.6615952,29.0025635 16.0150914,30.0892029 L5.51326558,30.0892029 C5.03891587,30.0892029 4.65386353,30.4739075 4.65386353,30.9485779 C4.65386353,31.4229126 5.03891587,31.8079529 5.51326558,31.8079529 L16.4874268,31.8079529 C16.5683315,31.8079529 16.6468862,31.7958679 16.7210768,31.7747193 C18.5835621,35.3585815 22.3313608,37.8125 26.6417991,37.8125 C28.6660939,37.8125 30.5665137,37.2710266 32.205756,36.3257141 L32.9990243,37.1189576 L32.9990243,41.421875 Z M41.9324415,41.9311218 C41.4664845,42.3973999 40.7081294,42.3973999 40.2421722,41.9311218 L33.6472686,35.3364258 C34.2689923,34.8345642 34.8356605,34.2679138 35.3375379,33.6462097 L41.9324415,40.24057 C42.3987342,40.7068482 42.3987342,41.4651794 41.9324415,41.9311218 Z" id="Shape"></path>
                <path d="M27.0909866,23 C26.488387,23 26,23.488387 26,24.0909866 C26,24.6935862 26.488387,25.1819731 27.0909866,25.1819731 C28.5945024,25.1819731 29.8180269,26.4054976 29.8180269,27.9090134 C29.8180269,28.5116131 30.3064138,29 30.9090134,29 C31.5116131,29 32,28.5116131 32,27.9090134 C32,25.202003 29.797997,23 27.0909866,23 Z" id="Shape"></path>
                <path d="M14.1817891,24 L6.81821087,24 C6.36659676,24 6,24.4476562 6,25 C6,25.5523437 6.36659676,26 6.81821087,26 L14.1817891,26 C14.6337227,26 15,25.5523437 15,25 C15,24.4476562 14.6337227,24 14.1817891,24 Z" id="Shape"></path>
                <path d="M15.13735,17 L6.86264995,17 C6.38650755,17 6,17.4476562 6,18 C6,18.5519531 6.38650755,19 6.86264995,19 L15.13735,19 C15.6138293,19 16,18.5519531 16,18 C16,17.4476562 15.6138293,17 15.13735,17 Z" id="Shape"></path>
                <path d="M16,36 C15.7367188,36 15.4789062,36.1066406 15.2929688,36.2929687 C15.1070312,36.4789062 15,36.7367187 15,37 C15,37.2628906 15.1070312,37.5210937 15.2929688,37.7066406 C15.4789062,37.8929687 15.7367188,38 16,38 C16.2628906,38 16.5210938,37.8929687 16.7078125,37.7066406 C16.89375,37.5210937 17,37.2628906 17,37 C17,36.7367187 16.89375,36.4789062 16.7078125,36.2929687 C16.5210938,36.1066406 16.2628906,36 16,36 Z" id="Shape"></path>
                <path d="M14.1410357,36 L6.85896432,36 C6.38485621,36 6,36.4476562 6,37 C6,37.5519531 6.38485621,38 6.85896432,38 L14.1410357,38 C14.6151437,38 15,37.5519531 15,37 C15,36.4476562 14.6154792,36 14.1410357,36 Z" id="Shape"></path>
                <path d="M7,14 C7.2640624,14 7.5210937,13.8929688 7.7070312,13.7070313 C7.8941406,13.5199219 8,13.2632813 8,13 C8,12.7371094 7.8941406,12.4792969 7.7070312,12.2921875 C7.5210937,12.10625 7.2628906,12 7,12 C6.7371093,12 6.4800781,12.10625 6.2929687,12.2921875 C6.1070312,12.478125 6,12.7359375 6,13 C6,13.2632813 6.1070312,13.5210938 6.2929687,13.7070313 C6.4792968,13.8929688 6.7371093,14 7,14 Z" id="Shape"></path>
                <path d="M22.1148403,12 L8.88515974,12 C8.39659308,12 8,12.4476563 8,13 C8,13.5519532 8.39659308,14 8.88515974,14 L22.1148403,14 C22.6037528,14 23,13.5519532 23,13 C23,12.4476563 22.6037528,12 22.1148403,12 Z" id="Shape"></path>
                <path d="M6.80246345,8 L22.1975366,8 C22.6407723,8 23,7.5523437 23,7 C23,6.4476562 22.6407723,6 22.1975366,6 L6.80246345,6 C6.35954118,6 6,6.4476562 6,7 C6,7.5523437 6.35954118,8 6.80246345,8 Z" id="Shape"></path>
            </g>
        </g>
    </g>
</svg>