<?xml version="1.0" encoding="UTF-8"?>
<svg width="64px" height="60px" viewBox="0 0 64 60" version="1.1" xmlns="http://www.w3.org/2000/svg" xmlns:xlink="http://www.w3.org/1999/xlink">
<!-- Generator: Sketch 52 (66869) - http://www.bohemiancoding.com/sketch -->
<title>Group 11</title>
<desc>Created with Sketch.</desc>
<g id="Page-1" stroke="none" stroke-width="1" fill="none" fill-rule="evenodd" opacity="0.574051339">
  <g id="Desktop-HD" transform="translate(-203.000000, -778.000000)" fill="#325FFF" fill-rule="nonzero">
    <g id="Group-11" transform="translate(203.000000, 778.000000)">
      <path class="st0" d="M63.4,37c0-1.2-0.9-2.1-2.1-2.1H43.5c0.2,0.3,0.4,0.5,0.5,0.8c0.2,0.3,0.3,0.5,0.4,0.8h16.8
		c0.3,0,0.5,0.2,0.5,0.5v7H38.1v-1.9c-0.3-0.1-0.5-0.2-0.8-0.3c-0.1,0-0.2-0.1-0.2-0.1c-0.1,0.2-0.3,0.4-0.5,0.6v7.9
		c0,1.1,0.9,2.1,2.1,2.1h22.7c1.1,0,2.1-0.9,2.1-2.1L63.4,37z M61.8,50.2c0,0.3-0.2,0.5-0.5,0.5H38.7c-0.3,0-0.5-0.2-0.5-0.5v-1.9
		h23.6V50.2z"/>

      <path class="st0" d="M5.8,10.2c1.9,0.6,5.2,1.4,9.3,1.7c1.7,0.1,3,0.2,4.3,0.3c2.5,0.2,4.5,0.3,8.6,0.4l0,0h2h0.6h1h0.8
		c0.1,0,0.2,0,0.3,0s0.2,0,0.2,0H33h0.1c0.1,0,0.3,0,0.5,0c0.1,0,0.3,0,0.4,0c0.9,0.1,1.8,0.3,2.5,0.6c0.6,0.3,0.9,0.8,1.5,2.1
		c0.5,1.1,1.1,2.4,2.2,3.9c0.4,0.6,0.8,1.1,1.2,1.7c2.7,3.6,3.6,4.9,3.6,8.6c0,0.6,0,1.2,0,1.7c0,0.3,0,0.6,0,0.9h-1.4
		c-0.2-0.2-0.4-0.3-0.6-0.5l-0.2-1c0-0.8-0.2-1.6-0.4-2.3L42.3,28l-0.1-0.6L41.7,27c-0.5-0.5-2.3-2.1-4.1-3.3
		c-0.1-0.1-0.3-0.2-0.4-0.3L37,23.3l0,0l0,0c-0.3-0.2-0.5-0.3-0.8-0.4L36,22.8l-0.3-0.1c-0.5-0.1-1-0.1-1.4-0.1
		c-2.5,0-4.1,1.5-4.3,4V27l0.1,0.4c0.3,0.8,1.5,3,7.6,6.7c1.3,0.8,2.3,1.6,3,2.5l0,0l0,0c0.2,0.2,0.3,0.3,0.4,0.6
		c0.2,0.2,0.3,0.4,0.4,0.6l0,0l0,0c0.5,0.9,0.5,1.5,0.5,1.7l-0.1,0.1V40c0,0,0,0.3-0.1,0.4c0,0-0.1,0-0.2,0c-0.3,0-0.9-0.1-2-0.6
		c0,0-0.4-0.2-0.9-0.4c-0.3-0.1-0.6-0.2-0.9-0.3c-0.2-0.1-0.4-0.1-0.6-0.2l-0.3-0.1h0c-0.7,0-1.3,0.3-1.8,0.8
		c-0.1,0.1-0.3,0.3-0.4,0.5c-0.3,0.4-0.5,0.6-0.7,0.6c-0.1,0-0.2,0-0.3-0.1c-0.1,0-0.1,0-0.1-0.1s0.1-0.3,0.2-0.4l3.1-4.7L31.5,37
		c-0.9,0.3-3.7,1.1-5.3,1.1c0-0.4,0-0.6,0-0.7l1.6-2.7l-3.3-0.1c-1.1,0-2.3-0.3-2.9-0.5c0-0.1,0.1-0.2,0.1-0.3
		c0.1,0,0.5-0.1,1.2-0.1c1.9,0,2.2-1.5,2.2-1.7c0.3-1.8-1.1-2.2-3.2-2.9c-3.3-1.1-10.2-3.4-14.2-7L7.5,22H7.4
		c-0.1-0.1-2.4-1.8-5-2.7C2.7,17.6,4,13.9,5.8,10.2 M21.6,33.7L21.6,33.7L21.6,33.7 M26.2,37.3L26.2,37.3L26.2,37.3 M4.7,7.7
		c0,0-6.2,12.5-3.7,13.1c2.5,0.6,5.2,2.7,5.2,2.7c6.2,5.6,18.7,8.2,16.5,8.2s-3,0.3-3.4,2.5s5,2.4,5,2.4s-0.4,0.8,0,2.7
		c0.1,0.6,0.8,0.8,1.8,0.8c2.3,0,6-1.2,6-1.2s-1.6,2.5,1,3.4c0.4,0.1,0.7,0.2,1,0.2c1.4,0,2.1-1.3,2.5-1.8c0.1-0.1,0.2-0.2,0.3-0.2
		l0,0c0.1,0,0.3,0.1,0.4,0.1c0.3,0.1,0.5,0.2,0.8,0.3c0.4,0.2,0.8,0.4,0.8,0.4c1.2,0.6,2.1,0.8,2.9,0.8c2.4,0,2.3-2.6,2.3-2.6
		s0.3-1.3-0.7-3c-0.1-0.3-0.3-0.5-0.5-0.8s-0.4-0.5-0.6-0.8C41.5,34,40.4,33,38.8,32c-6.1-3.8-6.7-5.7-6.7-5.7
		c0.1-1.7,1.2-2.1,2.3-2.1c0.4,0,0.7,0,1,0.1c0.2,0.1,0.4,0.2,0.6,0.3c0.2,0.1,0.4,0.2,0.6,0.4c1.8,1.2,3.6,2.9,3.8,3.1l0.1,0.4
		c0.3,0.7,0.3,1.4,0.4,2l0.3,1.8c0.6,0.5,1.1,1,1.6,1.4h4.1c0-1.2,0-2.6,0-4.6c-0.1-5-1.6-6.5-5.2-11.4c-2.4-3.3-2.1-5.5-4.4-6.6
		c-1.2-0.5-2.4-0.7-3.3-0.8c-0.2,0-0.4,0-0.5,0c-0.4,0-0.6,0-0.7,0c-0.2,0-0.4,0-0.6,0h-0.8h-1h-0.5l0,0h-0.5
		c-7.3,0-8.6-0.3-14.2-0.6C9,9.5,4.7,7.7,4.7,7.7L4.7,7.7z"/>
     </g>
  </g>
</g>
</svg>
